<?xml version="1.0" encoding="utf-8"?>
<svg version="1.1" xmlns:xlink="http://www.w3.org/1999/xlink" width="12px" height="12px" viewBox="860 384  12 12" xmlns="http://www.w3.org/2000/svg">
  <path d="M 866 384  C 869.36 384  872 386.64  872 390  C 872 393.36  869.36 396  866 396  C 862.64 396  860 393.36  860 390  C 860 386.64  862.64 384  866 384  Z " fill-rule="nonzero" fill="#ffffff" stroke="none" />
  <path d="M 866 384.5  C 869.08 384.5  871.5 386.92  871.5 390  C 871.5 393.08  869.08 395.5  866 395.5  C 862.92 395.5  860.5 393.08  860.5 390  C 860.5 386.92  862.92 384.5  866 384.5  Z " stroke-width="1" stroke="#797979" fill="none" />
  <path d="M 866 393  C 864.32 393  863 391.68  863 390  C 863 388.32  864.32 387  866 387  C 867.68 387  869 388.32  869 390  C 869 391.68  867.68 393  866 393  " fill-rule="nonzero" fill="#797979" stroke="none" />
</svg>