<?xml version="1.0" encoding="utf-8"?>
<svg version="1.1" xmlns:xlink="http://www.w3.org/1999/xlink" width="54px" height="50px" xmlns="http://www.w3.org/2000/svg">
  <g transform="matrix(1 0 0 1 -620 -355 )">
    <path d="M 31.18359375 41.3736979166667  C 31.39453125 41.1783854166667  31.5 40.9288194444444  31.5 40.625  L 31.5 34.375  C 31.5 34.0711805555556  31.39453125 33.8216145833333  31.18359375 33.6263020833333  C 30.97265625 33.4309895833333  30.703125 33.3333333333333  30.375 33.3333333333333  L 23.625 33.3333333333333  C 23.296875 33.3333333333333  23.02734375 33.4309895833333  22.81640625 33.6263020833333  C 22.60546875 33.8216145833333  22.5 34.0711805555556  22.5 34.375  L 22.5 40.625  C 22.5 40.9288194444444  22.60546875 41.1783854166667  22.81640625 41.3736979166667  C 23.02734375 41.5690104166667  23.296875 41.6666666666667  23.625 41.6666666666667  L 30.375 41.6666666666667  C 30.703125 41.6666666666667  30.97265625 41.5690104166667  31.18359375 41.3736979166667  Z M 40.060546875 21.38671875  C 40.353515625 20.5837673611111  40.5 19.7048611111111  40.5 18.75  C 40.5 16.8402777777778  39.849609375 15.0716145833333  38.548828125 13.4440104166667  C 37.248046875 11.81640625  35.625 10.5577256944444  33.6796875 9.66796875  C 31.734375 8.77821180555555  29.7421875 8.33333333333333  27.703125 8.33333333333333  C 22.0078125 8.33333333333333  17.66015625 10.64453125  14.66015625 15.2669270833333  C 14.30859375 15.7877604166667  14.40234375 16.2434895833333  14.94140625 16.6341145833333  L 19.58203125 19.8893229166667  C 19.74609375 20.01953125  19.96875 20.0846354166667  20.25 20.0846354166667  C 20.625 20.0846354166667  20.91796875 19.9544270833333  21.12890625 19.6940104166667  C 22.37109375 18.2183159722222  23.37890625 17.2200520833333  24.15234375 16.69921875  C 24.94921875 16.1783854166667  25.95703125 15.91796875  27.17578125 15.91796875  C 28.30078125 15.91796875  29.302734375 16.2000868055556  30.181640625 16.7643229166667  C 31.060546875 17.3285590277778  31.5 17.96875  31.5 18.6848958333333  C 31.5 19.5095486111111  31.265625 20.1714409722222  30.796875 20.6705729166667  C 30.328125 21.1697048611111  29.53125 21.6579861111111  28.40625 22.1354166666667  C 26.9296875 22.7430555555556  25.576171875 23.681640625  24.345703125 24.951171875  C 23.115234375 26.220703125  22.5 27.5824652777778  22.5 29.0364583333333  L 22.5 30.2083333333333  C 22.5 30.5121527777778  22.60546875 30.76171875  22.81640625 30.95703125  C 23.02734375 31.15234375  23.296875 31.25  23.625 31.25  L 30.375 31.25  C 30.703125 31.25  30.97265625 31.15234375  31.18359375 30.95703125  C 31.39453125 30.76171875  31.5 30.5121527777778  31.5 30.2083333333333  C 31.5 29.7960069444444  31.751953125 29.2588975694444  32.255859375 28.5970052083333  C 32.759765625 27.9351128472222  33.3984375 27.3980034722222  34.171875 26.9856770833333  C 34.921875 26.5950520833333  35.49609375 26.2858072916667  35.89453125 26.0579427083333  C 36.29296875 25.830078125  36.83203125 25.4503038194444  37.51171875 24.9186197916667  C 38.19140625 24.3869357638889  38.712890625 23.8661024305556  39.076171875 23.3561197916667  C 39.439453125 22.8461371527778  39.767578125 22.1896701388889  40.060546875 21.38671875  Z M 50.37890625 12.451171875  C 52.79296875 16.2814670138889  54 20.4644097222222  54 25  C 54 29.5355902777778  52.79296875 33.7185329861111  50.37890625 37.548828125  C 47.96484375 41.3791232638889  44.689453125 44.4118923611111  40.552734375 46.6471354166667  C 36.416015625 48.8823784722222  31.8984375 50  27 50  C 22.1015625 50  17.583984375 48.8823784722222  13.447265625 46.6471354166667  C 9.310546875 44.4118923611111  6.03515625 41.3791232638889  3.62109375 37.548828125  C 1.20703125 33.7185329861111  0 29.5355902777778  0 25  C 0 20.4644097222222  1.20703125 16.2814670138889  3.62109375 12.451171875  C 6.03515625 8.62087673611111  9.310546875 5.58810763888888  13.447265625 3.35286458333333  C 17.583984375 1.11762152777777  22.1015625 0  27 0  C 31.8984375 0  36.416015625 1.11762152777777  40.552734375 3.35286458333333  C 44.689453125 5.58810763888888  47.96484375 8.62087673611111  50.37890625 12.451171875  Z " fill-rule="nonzero" fill="#555555" stroke="none" transform="matrix(1 0 0 1 620 355 )" />
  </g>
</svg>