<?xml version="1.0" encoding="utf-8"?>
<svg version="1.1" xmlns:xlink="http://www.w3.org/1999/xlink" width="16px" height="23px" xmlns="http://www.w3.org/2000/svg">
  <g transform="matrix(1 0 0 1 -1320 -19 )">
    <path d="M 9.8125 14.10546875  C 10.6554487179487 12.8937299679487  11.0769230769231 11.4354967948718  11.0769230769231 9.73076923076923  C 11.0769230769231 8.02604166666666  10.6554487179487 6.56780849358974  9.8125 5.35606971153846  C 8.96955128205128 4.14433092948718  7.95512820512821 3.53846153846154  6.76923076923077 3.53846153846154  C 5.58333333333333 3.53846153846154  4.56891025641026 4.14433092948718  3.72596153846154 5.35606971153846  C 2.88301282051282 6.56780849358974  2.46153846153846 8.02604166666666  2.46153846153846 9.73076923076923  C 2.46153846153846 11.4354967948718  2.88301282051282 12.8937299679487  3.72596153846154 14.10546875  C 4.56891025641026 15.3172075320513  5.58333333333333 15.9230769230769  6.76923076923077 15.9230769230769  C 7.95512820512821 15.9230769230769  8.96955128205128 15.3172075320513  9.8125 14.10546875  Z M 15.6442307692308 19.9867788461538  C 15.8814102564103 20.3277243589744  16 20.7423878205128  16 21.2307692307692  C 16 21.7099358974359  15.8782051282051 22.1245993589744  15.6346153846154 22.4747596153846  C 15.3910256410256 22.8249198717949  15.1025641025641 23  14.7692307692308 23  C 14.4230769230769 23  14.1346153846154 22.8249198717949  13.9038461538462 22.4747596153846  L 10.6057692307692 17.7475961538462  C 9.45833333333333 18.8902243589744  8.17948717948718 19.4615384615385  6.76923076923077 19.4615384615385  C 5.8525641025641 19.4615384615385  4.97596153846154 19.2058293269231  4.13942307692308 18.6944110576923  C 3.30288461538462 18.1829927884615  2.58173076923077 17.4918870192308  1.97596153846154 16.62109375  C 1.37019230769231 15.7503004807692  0.889423076923077 14.7136418269231  0.533653846153846 13.5111177884615  C 0.177884615384615 12.30859375  0 11.0484775641026  0 9.73076923076923  C 0 8.41306089743589  0.177884615384615 7.15294471153846  0.533653846153846 5.95042067307692  C 0.889423076923077 4.74789663461538  1.37019230769231 3.71123798076923  1.97596153846154 2.84044471153846  C 2.58173076923077 1.96965144230769  3.30288461538462 1.27854567307692  4.13942307692308 0.767127403846155  C 4.97596153846154 0.255709134615384  5.8525641025641 0  6.76923076923077 0  C 7.68589743589744 0  8.5625 0.255709134615384  9.39903846153846 0.767127403846155  C 10.2355769230769 1.27854567307692  10.9567307692308 1.96965144230769  11.5625 2.84044471153846  C 12.1682692307692 3.71123798076923  12.6490384615385 4.74789663461538  13.0048076923077 5.95042067307692  C 13.3605769230769 7.15294471153846  13.5384615384615 8.41306089743589  13.5384615384615 9.73076923076923  C 13.5384615384615 11.7580128205128  13.1410256410256 13.5963541666667  12.3461538461538 15.2457932692308  L 15.6442307692308 19.9867788461538  Z " fill-rule="nonzero" fill="#7f7f7f" stroke="none" transform="matrix(1 0 0 1 1320 19 )" />
  </g>
</svg>