<?xml version="1.0" encoding="utf-8"?>
<svg version="1.1" xmlns:xlink="http://www.w3.org/1999/xlink" width="155px" height="155px" xmlns="http://www.w3.org/2000/svg">
  <g transform="matrix(1 0 0 1 -111 -142 )">
    <path d="M 108.292410714286 136.360212053571  C 117.806919642857 131.314639136905  125.620349702381 124.467075892857  131.732700892857 115.817522321429  C 130.464099702381 106.879650297619  127.941313244048 99.4554501488095  124.164341517857 93.544921875  C 120.387369791667 87.6343936011905  115.067894345238 84.2178199404762  108.205915178571 83.2952008928571  C 104.342447916667 87.5623139880952  99.7437686011905 90.8923921130952  94.4098772321428 93.2854352678571  C 89.0759858630953 95.6784784226191  83.4393601190476 96.875  77.5 96.875  C 71.5606398809524 96.875  65.9240141369048 95.6784784226191  60.5901227678571 93.2854352678571  C 55.2562313988095 90.8923921130952  50.6575520833333 87.5623139880952  46.7940848214286 83.2952008928571  C 39.9321056547619 84.2178199404762  34.6126302083333 87.6343936011905  30.8356584821429 93.544921875  C 27.0586867559524 99.4554501488095  24.535900297619 106.879650297619  23.2672991071429 115.817522321429  C 29.379650297619 124.467075892857  37.1930803571429 131.314639136905  46.7075892857143 136.360212053571  C 56.2220982142857 141.405784970238  66.4862351190476 143.928571428571  77.5 143.928571428571  C 88.5137648809524 143.928571428571  98.7779017857143 141.405784970238  108.292410714286 136.360212053571  Z M 100.983537946429 78.8406808035714  C 107.470703125 72.353515625  110.714285714286 64.5256696428572  110.714285714286 55.3571428571428  C 110.714285714286 46.1886160714286  107.470703125 38.3607700892857  100.983537946429 31.8736049107143  C 94.4963727678572 25.3864397321429  86.6685267857143 22.1428571428571  77.5 22.1428571428571  C 68.3314732142857 22.1428571428571  60.5036272321429 25.3864397321429  54.0164620535714 31.8736049107143  C 47.529296875 38.3607700892857  44.2857142857143 46.1886160714286  44.2857142857143 55.3571428571428  C 44.2857142857143 64.5256696428572  47.529296875 72.353515625  54.0164620535714 78.8406808035714  C 60.5036272321429 85.3278459821429  68.3314732142857 88.5714285714286  77.5 88.5714285714286  C 86.6685267857143 88.5714285714286  94.4963727678572 85.3278459821429  100.983537946429 78.8406808035714  Z M 148.858816964286 47.3995535714286  C 152.952938988095 56.9717261904762  155 67.0052083333333  155 77.5  C 155 87.9947916666667  152.952938988095 98.0138578869047  148.858816964286 107.557198660714  C 144.764694940476 117.100539434524  139.272228422619 125.346447172619  132.381417410714 132.294921875  C 125.49060639881 139.243396577381  117.259114583333 144.764694940476  107.686941964286 148.858816964286  C 98.1147693452381 152.952938988095  88.0524553571428 155  77.5 155  C 67.0052083333333 155  56.9717261904762 152.952938988095  47.3995535714286 148.858816964286  C 37.827380952381 144.764694940476  29.5814732142857 139.2578125  22.6618303571429 132.338169642857  C 15.7421875 125.418526785714  10.2353050595238 117.172619047619  6.14118303571429 107.600446428571  C 2.04706101190476 98.0282738095238  0 87.9947916666667  0 77.5  C 0 67.0052083333333  2.04706101190476 56.9717261904762  6.14118303571429 47.3995535714286  C 10.2353050595238 37.8273809523809  15.7421875 29.5814732142857  22.6618303571429 22.6618303571429  C 29.5814732142857 15.7421875  37.827380952381 10.2353050595238  47.3995535714286 6.14118303571428  C 56.9717261904762 2.04706101190476  67.0052083333333 0  77.5 0  C 87.9947916666667 0  98.0282738095238 2.04706101190476  107.600446428571 6.14118303571428  C 117.172619047619 10.2353050595238  125.418526785714 15.7421875  132.338169642857 22.6618303571429  C 139.2578125 29.5814732142857  144.764694940476 37.8273809523809  148.858816964286 47.3995535714286  Z " fill-rule="nonzero" fill="#000000" stroke="none" transform="matrix(1 0 0 1 111 142 )" />
  </g>
</svg>