<?xml version="1.0" encoding="utf-8"?>
<svg version="1.1" xmlns:xlink="http://www.w3.org/1999/xlink" width="12px" height="14px" xmlns="http://www.w3.org/2000/svg">
  <g transform="matrix(1 0 0 1 -80 -588 )">
    <path d="M 11.7613636363636 5.36931818181818  C 11.9204545454545 5.55492424242424  12 5.78030303030303  12 6.04545454545455  L 12 7.95454545454545  C 12 8.21969696969697  11.9204545454545 8.44507575757576  11.7613636363636 8.63068181818182  C 11.6022727272727 8.81628787878788  11.4090909090909 8.90909090909091  11.1818181818182 8.90909090909091  L 7.63636363636364 8.90909090909091  L 7.63636363636364 13.0454545454545  C 7.63636363636364 13.3106060606061  7.55681818181818 13.5359848484848  7.39772727272727 13.7215909090909  C 7.23863636363637 13.907196969697  7.04545454545455 14  6.81818181818182 14  L 5.18181818181818 14  C 4.95454545454546 14  4.76136363636364 13.907196969697  4.60227272727273 13.7215909090909  C 4.44318181818182 13.5359848484848  4.36363636363636 13.3106060606061  4.36363636363636 13.0454545454545  L 4.36363636363636 8.90909090909091  L 0.818181818181818 8.90909090909091  C 0.590909090909091 8.90909090909091  0.397727272727273 8.81628787878788  0.238636363636364 8.63068181818182  C 0.0795454545454545 8.44507575757576  0 8.21969696969697  0 7.95454545454545  L 0 6.04545454545455  C 0 5.78030303030303  0.0795454545454545 5.55492424242424  0.238636363636364 5.36931818181818  C 0.397727272727273 5.18371212121212  0.590909090909091 5.09090909090909  0.818181818181818 5.09090909090909  L 4.36363636363636 5.09090909090909  L 4.36363636363636 0.954545454545455  C 4.36363636363636 0.689393939393939  4.44318181818182 0.464015151515151  4.60227272727273 0.278409090909091  C 4.76136363636364 0.0928030303030298  4.95454545454546 0  5.18181818181818 0  L 6.81818181818182 0  C 7.04545454545455 0  7.23863636363637 0.0928030303030298  7.39772727272727 0.278409090909091  C 7.55681818181818 0.464015151515151  7.63636363636364 0.689393939393939  7.63636363636364 0.954545454545455  L 7.63636363636364 5.09090909090909  L 11.1818181818182 5.09090909090909  C 11.4090909090909 5.09090909090909  11.6022727272727 5.18371212121212  11.7613636363636 5.36931818181818  Z " fill-rule="nonzero" fill="#ffffff" stroke="none" transform="matrix(1 0 0 1 80 588 )" />
  </g>
</svg>