<?xml version="1.0" encoding="utf-8"?>
<svg version="1.1" xmlns:xlink="http://www.w3.org/1999/xlink" width="955px" height="2279px" xmlns="http://www.w3.org/2000/svg">
  <defs>
    <mask fill="white" id="clip1">
      <path d="M 0 2269  L 0 163.292682926829  L 0 0  L 945 0  L 945 2269  L 0 2269  Z " fill-rule="evenodd" />
    </mask>
    <filter x="582px" y="146px" width="955px" height="2279px" filterUnits="userSpaceOnUse" id="filter2">
      <feOffset dx="5" dy="5" in="SourceAlpha" result="shadowOffsetInner" />
      <feGaussianBlur stdDeviation="2.5" in="shadowOffsetInner" result="shadowGaussian" />
      <feComposite in2="shadowGaussian" operator="atop" in="SourceAlpha" result="shadowComposite" />
      <feColorMatrix type="matrix" values="0 0 0 0 0  0 0 0 0 0  0 0 0 0 0  0 0 0 0.349019607843137 0  " in="shadowComposite" />
    </filter>
    <g id="widget3">
      <path d="M 0 2269  L 0 163.292682926829  L 0 0  L 945 0  L 945 2269  L 0 2269  Z " fill-rule="nonzero" fill="#ffffff" stroke="none" transform="matrix(1 0 0 1 582 146 )" />
      <path d="M 0 2269  L 0 163.292682926829  L 0 0  L 945 0  L 945 2269  L 0 2269  Z " stroke-width="2" stroke="#aaaaaa" fill="none" transform="matrix(1 0 0 1 582 146 )" mask="url(#clip1)" />
    </g>
  </defs>
  <g transform="matrix(1 0 0 1 -582 -146 )">
    <use xlink:href="#widget3" filter="url(#filter2)" />
    <use xlink:href="#widget3" />
  </g>
</svg>