<?xml version="1.0" encoding="utf-8"?>
<svg version="1.1" xmlns:xlink="http://www.w3.org/1999/xlink" width="28px" height="31px" xmlns="http://www.w3.org/2000/svg">
  <g transform="matrix(1 0 0 1 -797 -131 )">
    <path d="M 17.171875 19.01171875  C 18.6470352564103 17.3785056089744  19.3846153846154 15.4130608974359  19.3846153846154 13.1153846153846  C 19.3846153846154 10.8177083333333  18.6470352564103 8.85226362179487  17.171875 7.21905048076923  C 15.6967147435897 5.58583733974359  13.9214743589744 4.76923076923077  11.8461538461538 4.76923076923077  C 9.77083333333333 4.76923076923077  7.99559294871795 5.58583733974359  6.52043269230769 7.21905048076923  C 5.04527243589744 8.85226362179487  4.30769230769231 10.8177083333333  4.30769230769231 13.1153846153846  C 4.30769230769231 15.4130608974359  5.04527243589744 17.3785056089744  6.52043269230769 19.01171875  C 7.99559294871795 20.6449318910256  9.77083333333333 21.4615384615385  11.8461538461538 21.4615384615385  C 13.9214743589744 21.4615384615385  15.6967147435897 20.6449318910256  17.171875 19.01171875  Z M 27.3774038461538 26.9387019230769  C 27.7924679487179 27.3982371794872  28 27.9571314102564  28 28.6153846153846  C 28 29.261217948718  27.786858974359 29.8201121794872  27.3605769230769 30.2920673076923  C 26.9342948717949 30.7640224358974  26.4294871794872 31  25.8461538461538 31  C 25.2403846153846 31  24.7355769230769 30.7640224358974  24.3317307692308 30.2920673076923  L 18.5600961538462 23.9206730769231  C 16.5520833333333 25.4607371794872  14.3141025641026 26.2307692307692  11.8461538461538 26.2307692307692  C 10.2419871794872 26.2307692307692  8.70793269230769 25.8861177884615  7.24399038461538 25.1968149038462  C 5.78004807692308 24.5075120192308  4.51802884615385 23.5760216346154  3.45793269230769 22.40234375  C 2.39783653846154 21.2286658653846  1.55649038461539 19.8314302884615  0.933894230769231 18.2106370192308  C 0.311298076923077 16.58984375  0 14.8914262820513  0 13.1153846153846  C 0 11.3393429487179  0.311298076923077 9.64092548076923  0.933894230769231 8.02013221153846  C 1.55649038461539 6.39933894230769  2.39783653846154 5.00210336538462  3.45793269230769 3.82842548076923  C 4.51802884615385 2.65474759615385  5.78004807692308 1.72325721153846  7.24399038461538 1.03395432692308  C 8.70793269230769 0.344651442307692  10.2419871794872 0  11.8461538461538 0  C 13.4503205128205 0  14.984375 0.344651442307692  16.4483173076923 1.03395432692308  C 17.9122596153846 1.72325721153846  19.1742788461538 2.65474759615385  20.234375 3.82842548076923  C 21.2944711538462 5.00210336538462  22.1358173076923 6.39933894230769  22.7584134615385 8.02013221153846  C 23.3810096153846 9.64092548076923  23.6923076923077 11.3393429487179  23.6923076923077 13.1153846153846  C 23.6923076923077 15.8477564102564  22.9967948717949 18.3255208333333  21.6057692307692 20.5486778846154  L 27.3774038461538 26.9387019230769  Z " fill-rule="nonzero" fill="#7f7f7f" stroke="none" transform="matrix(1 0 0 1 797 131 )" />
  </g>
</svg>