<?xml version="1.0" encoding="utf-8"?>
<svg version="1.1" xmlns:xlink="http://www.w3.org/1999/xlink" width="16px" height="31px" xmlns="http://www.w3.org/2000/svg">
  <g transform="matrix(1 0 0 1 -522 -599 )">
    <path d="M 15.4722222222222 14.1376953125  C 15.8240740740741 14.5211588541667  16 14.9752604166667  16 15.5  C 16 16.0247395833333  15.8240740740741 16.4788411458333  15.4722222222222 16.8623046875  L 3.02777777777778 30.4248046875  C 2.67592592592593 30.8082682291667  2.25925925925926 31  1.77777777777778 31  C 1.2962962962963 31  0.87962962962963 30.8082682291667  0.527777777777778 30.4248046875  C 0.175925925925926 30.0413411458333  0 29.5872395833333  0 29.0625  L 0 1.9375  C 0 1.41276041666666  0.175925925925926 0.958658854166662  0.527777777777778 0.5751953125  C 0.87962962962963 0.191731770833331  1.2962962962963 0  1.77777777777778 0  C 2.25925925925926 0  2.67592592592593 0.191731770833331  3.02777777777778 0.5751953125  L 15.4722222222222 14.1376953125  Z " fill-rule="nonzero" fill="#000000" stroke="none" transform="matrix(1 0 0 1 522 599 )" />
  </g>
</svg>