<?xml version="1.0" encoding="utf-8"?>
<svg version="1.1" xmlns:xlink="http://www.w3.org/1999/xlink" width="16px" height="31px" xmlns="http://www.w3.org/2000/svg">
  <g transform="matrix(1 0 0 1 -384 -599 )">
    <path d="M 15.4722222222222 0.5751953125  C 15.8240740740741 0.958658854166662  16 1.41276041666666  16 1.9375  L 16 29.0625  C 16 29.5872395833333  15.8240740740741 30.0413411458333  15.4722222222222 30.4248046875  C 15.1203703703704 30.8082682291667  14.7037037037037 31  14.2222222222222 31  C 13.7407407407407 31  13.3240740740741 30.8082682291667  12.9722222222222 30.4248046875  L 0.527777777777778 16.8623046875  C 0.175925925925926 16.4788411458333  0 16.0247395833333  0 15.5  C 0 14.9752604166667  0.175925925925926 14.5211588541667  0.527777777777778 14.1376953125  L 12.9722222222222 0.5751953125  C 13.3240740740741 0.191731770833331  13.7407407407407 0  14.2222222222222 0  C 14.7037037037037 0  15.1203703703704 0.191731770833331  15.4722222222222 0.5751953125  Z " fill-rule="nonzero" fill="#8c8c8c" stroke="none" transform="matrix(1 0 0 1 384 599 )" />
  </g>
</svg>