<?xml version="1.0" encoding="utf-8"?>
<svg version="1.1" xmlns:xlink="http://www.w3.org/1999/xlink" width="26px" height="24px" xmlns="http://www.w3.org/2000/svg">
  <g transform="matrix(1 0 0 1 -1188 -1283 )">
    <path d="M 19.3815104166668 14.6015625  C 19.4379340277779 14.6484375  19.4661458333332 14.7083333333333  19.4661458333332 14.7812499999998  L 19.4661458333332 16.4843750000002  C 19.4661458333332 17.0052083333333  19.2601996527779 17.4687500000002  18.8483072916668 17.8749999999998  C 18.4364149305555 18.28125  17.9060329861111 18.5963541666667  17.2571614583332 18.8203125  C 16.6082899305555 19.0442708333333  15.9424913194445 19.2135416666666  15.259765625 19.3281249999998  C 14.5770399305555 19.4427083333333  13.9140625 19.5  13.2708333333332 19.5  C 10.9574652777779 19.5  9.02495659722215 18.7760416666668  7.47330729166678 17.3281250000002  C 5.92165798611107 15.8802083333333  5.14583333333322 14.0781249999998  5.14583333333322 11.9218749999998  C 5.14583333333322 9.80729166666673  5.91319444444446 8.04166666666683  7.44791666666678 6.62499999999981  C 8.98263888888893 5.20833333333337  10.8953993055555 4.5  13.1861979166668 4.5  C 13.5698784722221 4.5  13.9958767361111 4.5234375  14.4641927083332 4.5703125  C 14.9325086805555 4.6171875  15.4572482638889 4.7109375  16.0384114583332 4.8515625  C 16.6195746527779 4.9921875  17.1414930555555 5.16927083333327  17.6041666666668 5.38281249999981  C 18.0668402777779 5.59635416666663  18.4561631944445 5.89062500000019  18.7721354166668 6.26562500000019  C 19.0881076388889 6.64062500000019  19.24609375 7.06250000000019  19.24609375 7.53125000000019  L 19.24609375 9.234375  C 19.24609375 9.40104166666683  19.1558159722221 9.48437499999981  18.9752604166668 9.48437499999981  L 16.9778645833332 9.48437499999981  C 16.7973090277779 9.48437499999981  16.70703125 9.40104166666683  16.70703125 9.234375  L 16.70703125 8.14062500000019  C 16.70703125 7.69270833333337  16.3374565972221 7.34114583333337  15.5983072916668 7.08593750000019  C 14.8591579861111 6.83072916666673  14.0833333333332 6.703125  13.2708333333332 6.703125  C 11.6909722222221 6.703125  10.4016927083332 7.17968750000019  9.40299479166678 8.1328125  C 8.404296875 9.08593749999981  7.90494791666678 10.3229166666667  7.90494791666678 11.8437500000002  C 7.90494791666678 13.4166666666667  8.42122395833322 14.7161458333332  9.45377604166678 15.7421874999998  C 10.486328125 16.7682291666667  11.8038194444445 17.2812500000002  13.40625 17.2812500000002  C 14.1736111111111 17.2812500000002  14.9522569444445 17.15625  15.7421875 16.9062500000002  C 16.5321180555555 16.6562499999998  16.9270833333332 16.3125  16.9270833333332 15.8750000000002  L 16.9270833333332 14.7812499999998  C 16.9270833333332 14.7083333333333  16.9524739583332 14.6484375  17.0032552083332 14.6015625  C 17.0540364583332 14.5546875  17.11328125 14.53125  17.1809895833332 14.53125  L 19.1953125 14.53125  C 19.2630208333332 14.53125  19.3250868055555 14.5546875  19.3815104166668 14.6015625  Z M 17.2063802083332 2.79687500000019  C 15.869140625 2.26562499999981  14.4670138888889 2.00000000000019  13 2.00000000000019  C 11.5329861111111 2.00000000000019  10.130859375 2.26562499999981  8.79361979166678 2.79687500000019  C 7.45638020833322 3.328125  6.30533854166678 4.03906250000019  5.34049479166678 4.92968750000019  C 4.37565104166678 5.82031250000019  3.60546875 6.88281249999981  3.02994791666678 8.11718750000019  C 2.45442708333322 9.3515625  2.16666666666678 10.6458333333334  2.16666666666678 12  C 2.16666666666678 13.3541666666666  2.45442708333322 14.6484375  3.02994791666678 15.8828124999998  C 3.60546875 17.1171875000002  4.37565104166678 18.1796874999998  5.34049479166678 19.0703124999998  C 6.30533854166678 19.9609374999998  7.45638020833322 20.671875  8.79361979166678 21.2031249999998  C 10.130859375 21.7343750000002  11.5329861111111 21.9999999999998  13 21.9999999999998  C 14.4670138888889 21.9999999999998  15.869140625 21.7343750000002  17.2063802083332 21.2031249999998  C 18.5436197916668 20.671875  19.6946614583332 19.9609374999998  20.6595052083332 19.0703124999998  C 21.6243489583332 18.1796874999998  22.39453125 17.1171875000002  22.9700520833332 15.8828124999998  C 23.5455729166668 14.6484375  23.8333333333332 13.3541666666666  23.8333333333332 12  C 23.8333333333332 10.6458333333334  23.5455729166668 9.3515625  22.9700520833332 8.11718750000019  C 22.39453125 6.88281249999981  21.6243489583332 5.82031250000019  20.6595052083332 4.92968750000019  C 19.6946614583332 4.03906250000019  18.5436197916668 3.328125  17.2063802083332 2.79687500000019  Z M 24.2565104166668 5.9765625  C 25.4188368055555 7.81510416666673  26 9.82291666666683  26 12  C 26 14.1770833333332  25.4188368055555 16.1848958333333  24.2565104166668 18.0234375  C 23.0941840277779 19.8619791666667  21.5171440972221 21.3177083333333  19.525390625 22.3906250000002  C 17.5336371527779 23.4635416666668  15.3585069444445 24  13 24  C 10.6414930555555 24  8.46636284722215 23.4635416666668  6.474609375 22.3906250000002  C 4.48285590277786 21.3177083333333  2.90581597222215 19.8619791666667  1.74348958333322 18.0234375  C 0.581163194444464 16.1848958333333  0 14.1770833333332  0 12  C 0 9.82291666666683  0.581163194444464 7.81510416666673  1.74348958333322 5.9765625  C 2.90581597222215 4.13802083333327  4.48285590277786 2.68229166666673  6.474609375 1.60937499999981  C 8.46636284722215 0.536458333333174  10.6414930555555 0  13 0  C 15.3585069444445 0  17.5336371527779 0.536458333333174  19.525390625 1.60937499999981  C 21.5171440972221 2.68229166666673  23.0941840277779 4.13802083333327  24.2565104166668 5.9765625  Z " fill-rule="nonzero" fill="#868686" stroke="none" transform="matrix(1 0 0 1 1188 1283 )" />
  </g>
</svg>