<?xml version="1.0" encoding="utf-8"?>
<svg version="1.1" xmlns:xlink="http://www.w3.org/1999/xlink" width="18px" height="27px" xmlns="http://www.w3.org/2000/svg">
  <g transform="matrix(1 0 0 1 -733 -1159 )">
    <path d="M 17.0816326530612 5.396484375  C 17.3553421368547 5.572265625  17.5678271308523 5.82421875  17.719087635054 6.15234375  C 18.0072028811525 6.8203125  18.0720288115246 7.576171875  17.9135654261705 8.419921875  L 14.9423769507803 24.345703125  C 14.8055222088836 25.095703125  14.5300120048019 25.7255859375  14.1158463385354 26.2353515625  C 13.7016806722689 26.7451171875  13.2605042016807 27  12.7923169267707 27  L 2.81992797118848 27  C 2.26530612244898 27  1.73049219687875 26.6865234375  1.21548619447779 26.0595703125  C 0.700480192076831 25.4326171875  0.342136854741897 24.662109375  0.140456182472989 23.748046875  C -0.0324129651860744 22.962890625  -0.0396158463385354 22.21875  0.118847539015606 21.515625  C 0.118847539015606 21.46875  0.129651860744298 21.310546875  0.151260504201681 21.041015625  C 0.172869147659064 20.771484375  0.187274909963986 20.5546875  0.194477791116447 20.390625  C 0.201680672268908 20.296875  0.190876350540216 20.1708984375  0.162064825930372 20.0126953125  C 0.133253301320528 19.8544921875  0.122448979591837 19.740234375  0.129651860744298 19.669921875  C 0.14405762304922 19.541015625  0.172869147659064 19.41796875  0.21608643457383 19.30078125  C 0.259303721488595 19.18359375  0.318727490996399 19.0458984375  0.394357743097239 18.8876953125  C 0.469987995198079 18.7294921875  0.529411764705882 18.591796875  0.572629051620648 18.474609375  C 0.738295318127251 18.029296875  0.900360144057623 17.4931640625  1.05882352941176 16.8662109375  C 1.21728691476591 16.2392578125  1.32533013205282 15.703125  1.38295318127251 15.2578125  C 1.40456182472989 15.140625  1.40636254501801 14.96484375  1.38835534213685 14.73046875  C 1.3703481392557 14.49609375  1.36854741896759 14.33203125  1.38295318127251 14.23828125  C 1.40456182472989 14.109375  1.46578631452581 13.9453125  1.56662665066026 13.74609375  C 1.66746698679472 13.546875  1.72869147659064 13.412109375  1.75030012004802 13.341796875  C 1.9015606242497 12.919921875  2.05282112845138 12.380859375  2.20408163265306 11.724609375  C 2.35534213685474 11.068359375  2.4453781512605 10.541015625  2.47418967587035 10.142578125  C 2.48139255702281 10.037109375  2.47238895558223 9.849609375  2.44717887154862 9.580078125  C 2.42196878751501 9.310546875  2.42376950780312 9.146484375  2.45258103241297 9.087890625  C 2.48139255702281 8.935546875  2.56062424969988 8.7568359375  2.69027611044418 8.5517578125  C 2.81992797118848 8.3466796875  2.89915966386555 8.21484375  2.92797118847539 8.15625  C 3.06482593037215 7.8515625  3.21788715486195 7.3564453125  3.38715486194478 6.6708984375  C 3.55642256902761 5.9853515625  3.65546218487395 5.419921875  3.68427370948379 4.974609375  C 3.69147659063625 4.880859375  3.68067226890756 4.7314453125  3.65186074429772 4.5263671875  C 3.62304921968788 4.3212890625  3.61584633853541 4.166015625  3.63025210084034 4.060546875  C 3.64465786314526 3.966796875  3.67707082833133 3.861328125  3.72749099639856 3.744140625  C 3.77791116446579 3.626953125  3.84273709483794 3.4921875  3.92196878751501 3.33984375  C 4.00120048019208 3.1875  4.06242496998799 3.064453125  4.10564225690276 2.970703125  C 4.16326530612245 2.830078125  4.22268907563025 2.6513671875  4.28391356542617 2.4345703125  C 4.34513805522209 2.2177734375  4.39915966386555 2.0126953125  4.44597839135654 1.8193359375  C 4.49279711884754 1.6259765625  4.55042016806723 1.4150390625  4.61884753901561 1.1865234375  C 4.68727490996399 0.958007812500001  4.75750300120048 0.770507812499999  4.82953181272509 0.624023437499999  C 4.9015606242497 0.477539062499996  4.99699879951981 0.339843749999998  5.11584633853541 0.2109375  C 5.23469387755102 0.0820312499999963  5.36434573829532 0.0146484374999997  5.50480192076831 0.008789062500001  C 5.6452581032413 0.00292968749999634  5.81632653061225 0.035156250000001  6.01800720288115 0.10546875  L 6.00720288115246 0.158203125  C 6.28091236494598 0.052734375  6.46458583433373 0  6.55822328931573 0  L 14.7803121248499 0  C 15.3133253301321 0  15.7238895558223 0.328124999999997  16.0120048019208 0.984375000000001  C 16.3001200480192 1.640625  16.3649459783914 2.40234375  16.2064825930372 3.26953125  L 13.2460984393757 19.1953125  C 12.9867947178872 20.58984375  12.7292917166867 21.4892578125  12.4735894357743 21.8935546875  C 12.2178871548619 22.2978515625  11.7551020408163 22.5  11.0852340936375 22.5  L 1.69627851140456 22.5  C 1.50180072028812 22.5  1.36494597839136 22.587890625  1.28571428571429 22.763671875  C 1.20648259303721 22.951171875  1.20288115246098 23.203125  1.27490996398559 23.51953125  C 1.44777911164466 24.33984375  1.96638655462185 24.75  2.83073229291717 24.75  L 12.8031212484994 24.75  C 13.0120048019208 24.75  13.2136854741897 24.6591796875  13.4081632653061 24.4775390625  C 13.6026410564226 24.2958984375  13.7286914765906 24.052734375  13.7863145258103 23.748046875  L 17.0276110444178 6.3984375  C 17.078031212485 6.140625  17.0960384153661 5.806640625  17.0816326530612 5.396484375  Z M 6.45018007202881 5.0625  L 6.22328931572629 6.1875  C 6.19447779111645 6.33984375  6.20168067226891 6.4716796875  6.24489795918367 6.5830078125  C 6.28811524609844 6.6943359375  6.36014405762305 6.75  6.4609843937575 6.75  L 13.0300120048019 6.75  C 13.1236494597839 6.75  13.2154861944778 6.6943359375  13.3055222088836 6.5830078125  C 13.3955582232893 6.4716796875  13.4549819927971 6.33984375  13.483793517407 6.1875  L 13.7106842737095 5.0625  C 13.7394957983193 4.91015625  13.7322929171669 4.7783203125  13.6890756302521 4.6669921875  C 13.6458583433373 4.5556640625  13.5738295318127 4.5  13.4729891956783 4.5  L 6.90396158463385 4.5  C 6.81032412965186 4.5  6.71848739495798 4.5556640625  6.62845138055222 4.6669921875  C 6.53841536614646 4.7783203125  6.47899159663866 4.91015625  6.45018007202881 5.0625  Z M 5.55342136854742 9.5625  L 5.3265306122449 10.6875  C 5.29771908763505 10.83984375  5.30492196878752 10.9716796875  5.34813925570228 11.0830078125  C 5.39135654261705 11.1943359375  5.46338535414166 11.25  5.56422569027611 11.25  L 12.1332533013205 11.25  C 12.2268907563025 11.25  12.3187274909964 11.1943359375  12.4087635054022 11.0830078125  C 12.4987995198079 10.9716796875  12.5582232893157 10.83984375  12.5870348139256 10.6875  L 12.8139255702281 9.5625  C 12.8427370948379 9.41015625  12.8355342136855 9.2783203125  12.7923169267707 9.1669921875  C 12.7490996398559 9.0556640625  12.6770708283313 9  12.5762304921969 9  L 6.00720288115246 9  C 5.91356542617047 9  5.82172869147659 9.0556640625  5.73169267707083 9.1669921875  C 5.64165666266507 9.2783203125  5.58223289315726 9.41015625  5.55342136854742 9.5625  Z " fill-rule="nonzero" fill="#aaaaaa" stroke="none" transform="matrix(1 0 0 1 733 1159 )" />
  </g>
</svg>