<?xml version="1.0" encoding="utf-8"?>
<svg version="1.1" xmlns:xlink="http://www.w3.org/1999/xlink" width="17px" height="26px" xmlns="http://www.w3.org/2000/svg">
  <g transform="matrix(1 0 0 1 -197 -1159 )">
    <path d="M 16.9637784090909 20.1463068181818  C 16.9879261363636 20.2324810606061  17 20.3617424242424  17 20.5340909090909  C 17 20.8664772727273  16.9597537878788 21.3004261363636  16.8792613636364 21.8359375  C 16.7987689393939 22.3714488636364  16.7142518939394 22.7930871212121  16.6257102272727 23.1008522727273  C 16.4566761363636 23.7163825757576  15.9656723484849 24.3688446969697  15.1526988636364 25.0582386363636  C 14.3960700757576 25.6860795454545  13.647490530303 26  12.9069602272727 26  C 12.6896306818182 26  12.4763257575758 25.9784564393939  12.2670454545455 25.9353693181818  C 12.0577651515152 25.8922821969697  11.8263494318182 25.8153409090909  11.5727982954545 25.7045454545455  C 11.3192471590909 25.59375  11.1300899621212 25.5044981060606  11.0053267045455 25.4367897727273  C 10.8805634469697 25.3690814393939  10.657196969697 25.2428977272727  10.3352272727273 25.0582386363636  C 10.0132575757576 24.8735795454545  9.81605113636364 24.7627840909091  9.74360795454545 24.7258522727273  C 8.9547821969697 24.2949810606061  8.25047348484848 23.7840909090909  7.63068181818182 23.1931818181818  C 6.60842803030303 22.2206439393939  5.54592803030303 20.8910984848485  4.44318181818182 19.2045454545455  C 3.34043560606061 17.5179924242424  2.47111742424242 15.8929924242424  1.83522727272727 14.3295454545455  C 1.44886363636364 13.3816287878788  1.11482007575758 12.3044507575758  0.833096590909091 11.0980113636364  C 0.808948863636364 10.9872159090909  0.736505681818182 10.6856060606061  0.615767045454546 10.1931818181818  C 0.495028409090909 9.70075757575757  0.412523674242424 9.35913825757575  0.368252840909091 9.16832386363637  C 0.323982007575758 8.97750946969697  0.265625 8.68821022727273  0.193181818181818 8.30042613636363  C 0.120738636363636 7.91264204545454  0.0704308712121212 7.55871212121212  0.0422585227272727 7.23863636363636  C 0.0140861742424242 6.9185606060606  0 6.59232954545455  0 6.25994318181818  C 0 5.12736742424242  0.205255681818182 3.98248106060606  0.615767045454546 2.82528409090909  C 1.06652462121212 1.58191287878787  1.49313446969697 0.83096590909091  1.89559659090909 0.572443181818181  C 2.09682765151515 0.437026515151513  2.37251420454545 0.307765151515149  2.72265625 0.18465909090909  C 3.07279829545455 0.0615530303030292  3.35653409090909 0  3.57386363636364 0  C 3.68655303030303 0  3.77107007575758 0.0184659090909096  3.82741477272727 0.055397727272726  C 3.97230113636364 0.129261363636364  4.18560606060606 0.597064393939394  4.46732954545455 1.45880681818182  C 4.55587121212121 1.69270833333333  4.67660984848485 2.02509469696969  4.82954545454546 2.45596590909091  C 4.98248106060606 2.88683712121212  5.1233428030303 3.27769886363636  5.25213068181818 3.62855113636364  C 5.38091856060606 3.97940340909091  5.50568181818182 4.30871212121212  5.62642045454546 4.61647727272727  C 5.65056818181818 4.66571969696969  5.7209990530303 4.81960227272727  5.83771306818182 5.078125  C 5.95442708333333 5.33664772727273  6.04095643939394 5.55516098484848  6.09730113636364 5.73366477272727  C 6.15364583333333 5.91216856060606  6.18181818181818 6.08759469696969  6.18181818181818 6.25994318181818  C 6.18181818181818 6.5061553030303  6.06711647727273 6.81392045454546  5.83771306818182 7.18323863636364  C 5.60830965909091 7.55255681818182  5.35878314393939 7.89109848484848  5.08913352272727 8.19886363636363  C 4.81948390151515 8.50662878787878  4.56995738636364 8.83285984848485  4.34055397727273 9.17755681818182  C 4.11115056818182 9.52225378787879  3.99644886363636 9.80539772727273  3.99644886363636 10.0269886363636  C 3.99644886363636 10.1377840909091  4.01657196969697 10.2762784090909  4.05681818181818 10.4424715909091  C 4.09706439393939 10.6086647727273  4.13127367424242 10.7348484848485  4.15944602272727 10.8210227272727  C 4.18761837121212 10.907196969697  4.24396306818182 11.0549242424242  4.32848011363636 11.2642045454545  C 4.41299715909091 11.4734848484848  4.4592803030303 11.5904356060606  4.46732954545455 11.6150568181818  C 5.07907196969697 13.3016098484848  5.77935606060606 14.7481060606061  6.56818181818182 15.9545454545455  C 7.35700757575758 17.1609848484848  8.30279356060606 18.2320075757576  9.40553977272727 19.1676136363636  C 9.42163825757576 19.1799242424242  9.49810606060606 19.2507102272727  9.63494318181818 19.3799715909091  C 9.7717803030303 19.5092329545455  9.86837121212121 19.5954071969697  9.92471590909091 19.6384943181818  C 9.98106060606061 19.6815814393939  10.0635653409091 19.7339015151515  10.1722301136364 19.7954545454545  C 10.2808948863636 19.8570075757576  10.3714488636364 19.8877840909091  10.4438920454545 19.8877840909091  C 10.5887784090909 19.8877840909091  10.7739109848485 19.7123579545455  10.9992897727273 19.3615056818182  C 11.2246685606061 19.0106534090909  11.4379734848485 18.6290246212121  11.6392045454545 18.2166193181818  C 11.8404356060606 17.8042140151515  12.0617897727273 17.4225852272727  12.3032670454545 17.0717329545455  C 12.5447443181818 16.7208806818182  12.7459753787879 16.5454545454545  12.9069602272727 16.5454545454545  C 13.0196496212121 16.5454545454545  13.1343513257576 16.5885416666667  13.2510653409091 16.6747159090909  C 13.3677793560606 16.7608901515151  13.5106534090909 16.8932291666667  13.6796875 17.0717329545455  C 13.8487215909091 17.2502367424242  13.9493371212121 17.3579545454545  13.9815340909091 17.3948863636364  C 14.1827651515152 17.5795454545455  14.3980823863636 17.7703598484848  14.6274857954545 17.9673295454545  C 14.8568892045455 18.1642992424242  15.1124526515152 18.3797348484848  15.3941761363636 18.6136363636364  C 15.6758996212121 18.8475378787879  15.8932291666667 19.032196969697  16.0461647727273 19.1676136363636  C 16.6096117424242 19.5984848484848  16.9154829545455 19.9247159090909  16.9637784090909 20.1463068181818  Z " fill-rule="nonzero" fill="#aaaaaa" stroke="none" transform="matrix(1 0 0 1 197 1159 )" />
  </g>
</svg>