<?xml version="1.0" encoding="utf-8"?>
<svg version="1.1" xmlns:xlink="http://www.w3.org/1999/xlink" width="19px" height="20px" xmlns="http://www.w3.org/2000/svg">
  <g transform="matrix(1 0 0 1 -59 -1149 )">
    <path d="M 18.9595170454546 15.497159090909  C 18.9865056818182 15.563446969697  19 15.662878787879  19 15.7954545454547  C 19 16.0511363636363  18.9550189393939 16.3849431818182  18.8650568181818 16.796875  C 18.7750946969697 17.2088068181818  18.680634469697 17.533143939394  18.5816761363636 17.7698863636363  C 18.3927556818182 18.243371212121  17.8439867424242 18.7452651515152  16.9353693181818 19.2755681818182  C 16.0897253787879 19.7585227272727  15.2530776515152 20  14.4254261363636 20  C 14.1825284090909 20  13.9441287878788 19.983428030303  13.7102272727273 19.950284090909  C 13.4763257575758 19.9171401515152  13.2176846590909 19.8579545454547  12.9343039772727 19.7727272727273  C 12.6509232954546 19.6875  12.4395123106061 19.6188446969697  12.3000710227273 19.5667613636363  C 12.1606297348485 19.514678030303  11.9109848484848 19.4176136363637  11.5511363636364 19.2755681818182  C 11.1912878787879 19.1335227272727  10.9708806818182 19.0482954545453  10.8899147727273 19.0198863636363  C 10.0082859848485 18.688446969697  9.22111742424244 18.2954545454547  8.52840909090908 17.840909090909  C 7.38589015151516 17.092803030303  6.19839015151516 16.0700757575758  4.96590909090908 14.7727272727273  C 3.73342803030303 13.475378787879  2.76183712121212 12.225378787879  2.05113636363636 11.0227272727273  C 1.61931818181819 10.2935606060607  1.24597537878788 9.46496212121201  0.931107954545439 8.53693181818176  C 0.904119318181813 8.45170454545473  0.823153409090921 8.219696969697  0.688210227272734 7.84090909090901  C 0.553267045454561 7.46212121212102  0.461055871212125 7.19933712121201  0.411576704545439 7.05255681818176  C 0.362097537878796 6.90577651515173  0.296875 6.68323863636374  0.215909090909079 6.38494318181824  C 0.134943181818187 6.08664772727275  0.0787168560605949 5.81439393939399  0.0472301136363598 5.56818181818176  C 0.0157433712121247 5.32196969696975  0 5.07102272727275  0 4.81534090909099  C 0 3.94412878787898  0.229403409090921 3.063446969697  0.688210227272734 2.17329545454527  C 1.19199810606059 1.21685606060601  1.66879734848484 0.639204545454731  2.11860795454544 0.440340909090992  C 2.34351325757576 0.336174242424249  2.65163352272727 0.236742424242721  3.04296875 0.142045454545269  C 3.43430397727273 0.0473484848482713  3.75142045454544 0  3.99431818181819 0  C 4.12026515151516 0  4.21472537878788 0.0142045454547315  4.27769886363636 0.0426136363637397  C 4.43963068181819 0.0994318181817562  4.67803030303033 0.459280303030255  4.99289772727273 1.12215909090901  C 5.09185606060606 1.30208333333326  5.22679924242424 1.55776515151524  5.39772727272727 1.88920454545473  C 5.56865530303033 2.22064393939399  5.72608901515153 2.52130681818176  5.87002840909092 2.79119318181824  C 6.01396780303033 3.06107954545473  6.15340909090908 3.31439393939399  6.28835227272727 3.55113636363626  C 6.31534090909092 3.58901515151524  6.39405776515153 3.70738636363626  6.52450284090908 3.90625  C 6.65494791666667 4.10511363636374  6.75165719696967 4.27320075757575  6.81463068181819 4.41051136363626  C 6.87760416666667 4.547821969697  6.90909090909092 4.68276515151524  6.90909090909092 4.81534090909099  C 6.90909090909092 5.00473484848476  6.78089488636364 5.24147727272725  6.52450284090908 5.52556818181824  C 6.26811079545456 5.80965909090901  5.98922821969697 6.07007575757575  5.68785511363636 6.30681818181824  C 5.38648200757576 6.54356060606074  5.10759943181819 6.79450757575728  4.85120738636364 7.05965909090901  C 4.59481534090908 7.32481060606074  4.46661931818181 7.54261363636374  4.46661931818181 7.71306818181824  C 4.46661931818181 7.79829545454527  4.48910984848484 7.90482954545473  4.53409090909092 8.03267045454527  C 4.57907196969697 8.16051136363626  4.61730587121212 8.25757575757575  4.64879261363636 8.32386363636374  C 4.68027935606059 8.39015151515173  4.74325284090908 8.50378787878799  4.83771306818181 8.66477272727275  C 4.93217329545456 8.82575757575728  4.98390151515153 8.91571969696975  4.99289772727273 8.93465909090901  C 5.67660984848484 10.2320075757573  6.45928030303033 11.344696969697  7.34090909090908 12.2727272727273  C 8.22253787878788 13.2007575757573  9.27959280303033 14.024621212121  10.5120738636364 14.7443181818182  C 10.5300662878788 14.753787878788  10.6155303030303 14.8082386363637  10.7684659090909 14.9076704545453  C 10.9214015151515 15.0071022727273  11.0293560606061 15.0733901515152  11.0923295454546 15.106534090909  C 11.155303030303 15.139678030303  11.2475142045454 15.1799242424242  11.3689630681818 15.2272727272727  C 11.4904119318182 15.274621212121  11.5916193181818 15.2982954545453  11.6725852272727 15.2982954545453  C 11.8345170454546 15.2982954545453  12.0414299242424 15.1633522727273  12.2933238636364 14.893465909091  C 12.5452178030303 14.6235795454547  12.7836174242424 14.330018939394  13.0085227272727 14.012784090909  C 13.233428030303 13.6955492424242  13.4808238636364 13.4019886363637  13.7507102272727 13.1321022727273  C 14.0205965909091 12.862215909091  14.2455018939394 12.7272727272727  14.4254261363636 12.7272727272727  C 14.5513731060606 12.7272727272727  14.6795691287879 12.7604166666667  14.8100142045454 12.8267045454547  C 14.940459280303 12.8929924242427  15.1001420454546 12.9947916666667  15.2890625 13.1321022727273  C 15.4779829545454 13.269412878788  15.5904356060606 13.3522727272727  15.6264204545454 13.3806818181818  C 15.8513257575758 13.5227272727273  16.0919744318182 13.6695075757573  16.3483664772727 13.8210227272727  C 16.6047585227273 13.972537878788  16.8903882575758 14.1382575757573  17.2052556818182 14.3181818181818  C 17.5201231060606 14.498106060606  17.7630208333334 14.6401515151517  17.9339488636364 14.7443181818182  C 18.5636837121212 15.0757575757573  18.9055397727273 15.3267045454547  18.9595170454546 15.497159090909  Z " fill-rule="nonzero" fill="#ffffff" stroke="none" transform="matrix(1 0 0 1 59 1149 )" />
  </g>
</svg>