<?xml version="1.0" encoding="utf-8"?>
<svg version="1.1" xmlns:xlink="http://www.w3.org/1999/xlink" width="24px" height="19px" xmlns="http://www.w3.org/2000/svg">
  <g transform="matrix(1 0 0 1 -512 -1150 )">
    <path d="M 22.7755102040816 3.79752604166674  C 23.140456182473 3.92122395833326  23.4237695078032 4.09852430555543  23.625450180072 4.32942708333326  C 24.0096038415365 4.79947916666674  24.0960384153661 5.33138020833326  23.8847539015607 5.92513020833326  L 19.9231692677071 17.1321614583333  C 19.7406962785113 17.6599392361111  19.3733493397359 18.1031901041667  18.8211284513806 18.4619140625  C 18.2689075630252 18.8206380208333  17.6806722689075 19  17.0564225690276 19  L 3.75990396158466 19  C 3.0204081632653 19  2.30732292917173 18.7794053819446  1.62064825930372 18.3382161458333  C 0.933973589435823 17.8970269097222  0.456182472989212 17.3548177083333  0.187274909964003 16.7115885416667  C -0.0432172869147962 16.1590711805554  -0.0528211284513986 15.6354166666667  0.158463385354139 15.140625  C 0.158463385354139 15.1076388888889  0.172869147659071 14.9963107638889  0.201680672268935 14.806640625  C 0.230492196878799 14.6169704861111  0.249699879952004 14.4644097222222  0.259303721488664 14.3489583333333  C 0.268907563025209 14.2829861111111  0.254501800720277 14.1943359375  0.216086434573754 14.0830078125  C 0.177671068427344 13.9716796875  0.163265306122412 13.8912760416667  0.172869147659071 13.841796875  C 0.192076830732276 13.7510850694446  0.230492196878799 13.6644965277778  0.288115246098414 13.58203125  C 0.345738295318142 13.4995659722222  0.424969987995155 13.4026692708333  0.525810324129679 13.2913411458333  C 0.62665066026409 13.1800130208333  0.705882352941217 13.0831163194446  0.763505402160831 13.0006510416667  C 0.984393757502971 12.6872829861111  1.20048019207684 12.3100043402778  1.41176470588232 11.8688151041667  C 1.6230492196878 11.4276258680554  1.76710684273712 11.0503472222222  1.84393757502994 10.7369791666667  C 1.8727490996398 10.6545138888889  1.875150060024 10.5308159722222  1.85114045618241 10.3658854166667  C 1.82713085234093 10.2009548611111  1.82472989195674 10.0855034722222  1.84393757502994 10.01953125  C 1.8727490996398 9.92881944444457  1.95438175270101 9.81336805555543  2.08883553421367 9.67317708333326  C 2.22328931572622 9.53298611111109  2.30492196878754 9.43815104166674  2.3337334933974 9.388671875  C 2.53541416566623 9.091796875  2.73709483793516 8.71245659722217  2.9387755102041 8.25065104166674  C 3.14045618247303 7.78884548611109  3.26050420168076 7.41775173611109  3.29891956782706 7.13736979166674  C 3.30852340936372 7.06315104166674  3.29651860744298 6.93120659722217  3.26290516206484 6.74153645833326  C 3.2292917166867 6.55186631944457  3.23169267707078 6.43641493055543  3.27010804321731 6.39518229166674  C 3.30852340936372 6.28797743055543  3.41416566626651 6.16221788194457  3.58703481392558 6.01790364583326  C 3.75990396158466 5.87358940972217  3.86554621848745 5.78081597222217  3.90396158463386 5.73958333333326  C 4.08643457382959 5.52517361111109  4.29051620648261 5.1767578125  4.51620648259302 4.6943359375  C 4.74189675870343 4.2119140625  4.8739495798319 3.81401909722217  4.91236494597842 3.50065104166674  C 4.92196878751497 3.43467881944457  4.90756302521004 3.32953559027783  4.86914765906363 3.18522135416674  C 4.83073229291722 3.04090711805543  4.82112845138056 2.931640625  4.84033613445376 2.857421875  C 4.85954381752708 2.79144965277783  4.90276110444177 2.71723090277783  4.96998799519804 2.634765625  C 5.03721488595431 2.55230034722217  5.12364945978391 2.45746527777783  5.2292917166867 2.35026041666674  C 5.3349339735895 2.24305555555543  5.41656662665071 2.15646701388891  5.47418967587032 2.09049479166674  C 5.55102040816325 1.99153645833326  5.63025210084038 1.86577690972217  5.71188475390159 1.71321614583326  C 5.79351740696279 1.56065538194457  5.86554621848745 1.41634114583326  5.92797118847545 1.2802734375  C 5.99039615846334 1.14420572916674  6.06722689075627 0.995768229166742  6.15846338535414 0.8349609375  C 6.249699879952 0.674153645833258  6.34333733493395 0.542209201388914  6.43937575030009 0.439127604166742  C 6.53541416566623 0.336046006944571  6.66266506602642 0.239149305555429  6.82112845138056 0.1484375  C 6.9795918367347 0.0577256944445708  7.15246098439377 0.0103081597221717  7.33973589435777 0.00618489583325754  C 7.52701080432178 0.00206163194457076  7.75510204081638 0.0247395833332575  8.02400960384148 0.07421875  L 8.00960384153666 0.111328125  C 8.37454981992801 0.037109375  8.61944777911162 0  8.74429771908763 0  L 19.7070828331332 0  C 20.4177671068427 0  20.9651860744298 0.230902777777828  21.3493397358943 0.692708333333258  C 21.733493397359 1.15451388888891  21.8199279711885 1.69053819444457  21.608643457383 2.30078125  L 17.6614645858343 13.5078125  C 17.3157262905162 14.4891493055554  16.9723889555822 15.1220703125  16.6314525810325 15.4065755208333  C 16.2905162064826 15.6910807291667  15.6734693877552 15.8333333333333  14.78031212485 15.8333333333333  L 2.26170468187274 15.8333333333333  C 2.00240096038419 15.8333333333333  1.81992797118846 15.8951822916667  1.71428571428578 16.0188802083333  C 1.60864345738298 16.1508246527778  1.60384153661471 16.328125  1.69987995198073 16.55078125  C 1.93037214885953 17.1280381944446  2.62184873949582 17.4166666666667  3.77430972388947 17.4166666666667  L 17.0708283313325 17.4166666666667  C 17.3493397358943 17.4166666666667  17.6182472989196 17.3527560763889  17.8775510204082 17.2249348958333  C 18.1368547418967 17.0971137152778  18.3049219687875 16.9259982638889  18.3817527010804 16.7115885416667  L 22.703481392557 4.50260416666674  C 22.7707082833133 4.32118055555543  22.7947178871549 4.08615451388891  22.7755102040816 3.79752604166674  Z M 8.60024009603842 3.5625  L 8.29771908763507 4.35416666666674  C 8.25930372148855 4.46137152777783  8.26890756302521 4.55414496527783  8.32653061224482 4.63248697916674  C 8.38415366146455 4.71082899305543  8.4801920768308 4.75  8.61464585834335 4.75  L 17.3733493397359 4.75  C 17.4981992797119 4.75  17.6206482593037 4.71082899305543  17.7406962785113 4.63248697916674  C 17.8607442977191 4.55414496527783  17.9399759903962 4.46137152777783  17.9783913565426 4.35416666666674  L 18.2809123649459 3.5625  C 18.3193277310925 3.45529513888891  18.3097238895558 3.36252170138891  18.2521008403361 3.2841796875  C 18.1944777911165 3.20583767361109  18.0984393757503 3.16666666666674  17.9639855942377 3.16666666666674  L 9.20528211284511 3.16666666666674  C 9.08043217286922 3.16666666666674  8.9579831932773 3.20583767361109  8.83793517406957 3.2841796875  C 8.71788715486196 3.36252170138891  8.63865546218494 3.45529513888891  8.60024009603842 3.5625  Z M 7.40456182472985 6.72916666666674  L 7.10204081632651 7.52083333333326  C 7.0636254501801 7.62803819444457  7.07322929171676 7.72081163194457  7.13085234093637 7.79915364583326  C 7.18847539015599 7.87749565972217  7.28451380552224 7.91666666666674  7.41896758703479 7.91666666666674  L 16.1776710684273 7.91666666666674  C 16.3025210084033 7.91666666666674  16.4249699879952 7.87749565972217  16.5450180072029 7.79915364583326  C 16.6650660264106 7.72081163194457  16.7442977190876 7.62803819444457  16.782713085234 7.52083333333326  L 17.0852340936375 6.72916666666674  C 17.1236494597839 6.62196180555543  17.1140456182472 6.52918836805543  17.0564225690276 6.45084635416674  C 16.9987995198079 6.37250434027783  16.9027611044418 6.33333333333326  16.7683073229291 6.33333333333326  L 8.00960384153666 6.33333333333326  C 7.88475390156066 6.33333333333326  7.76230492196873 6.37250434027783  7.64225690276112 6.45084635416674  C 7.5222088835535 6.52918836805543  7.44297719087638 6.62196180555543  7.40456182472985 6.72916666666674  Z " fill-rule="nonzero" fill="#ffffff" stroke="none" transform="matrix(1 0 0 1 512 1150 )" />
  </g>
</svg>