<?xml version="1.0" encoding="utf-8"?>
<svg version="1.1" xmlns:xlink="http://www.w3.org/1999/xlink" width="28px" height="26px" xmlns="http://www.w3.org/2000/svg">
  <g transform="matrix(1 0 0 1 -119 -1120 )">
    <path d="M 27.9403409090909 20.1463068181817  C 27.9801136363636 20.2324810606061  28 20.3617424242427  28 20.5340909090912  C 28 20.8664772727271  27.9337121212121 21.3004261363637  27.8011363636364 21.8359375  C 27.6685606060606 22.3714488636363  27.5293560606061 22.7930871212122  27.3835227272727 23.1008522727271  C 27.1051136363636 23.7163825757573  26.2964015151515 24.3688446969698  24.9573863636364 25.0582386363637  C 23.7111742424242 25.6860795454546  22.4782196969697 26  21.2585227272727 26  C 20.9005681818182 26  20.5492424242424 25.9784564393939  20.2045454545454 25.9353693181817  C 19.8598484848485 25.8922821969698  19.4786931818182 25.8153409090912  19.0610795454546 25.7045454545454  C 18.6434659090909 25.59375  18.3319128787879 25.5044981060607  18.1264204545454 25.4367897727271  C 17.920928030303 25.3690814393939  17.5530303030303 25.2428977272729  17.0227272727273 25.0582386363637  C 16.4924242424242 24.8735795454546  16.1676136363636 24.7627840909088  16.0482954545454 24.7258522727271  C 14.749053030303 24.2949810606061  13.5890151515152 23.7840909090912  12.5681818181818 23.1931818181817  C 10.8844696969697 22.2206439393939  9.1344696969697 20.8910984848485  7.3181818181818 19.2045454545454  C 5.50189393939394 17.5179924242427  4.07007575757576 15.8929924242427  3.02272727272727 14.3295454545454  C 2.38636363636364 13.381628787879  1.83617424242424 12.3044507575756  1.37215909090907 11.0980113636363  C 1.33238636363636 10.9872159090911  1.2130681818182 10.6856060606061  1.01420454545455 10.1931818181817  C 0.815340909090932 9.70075757575732  0.679450757575763 9.35913825757561  0.606534090909068 9.16832386363628  C 0.533617424242436 8.97750946969725  0.4375 8.68821022727286  0.318181818181801 8.30042613636372  C 0.198863636363644 7.91264204545457  0.116003787878771 7.55871212121219  0.069602272727267 7.23863636363628  C 0.0232007575757627 6.91856060606067  0 6.59232954545457  0 6.25994318181829  C 0 5.12736742424268  0.338068181818199 3.9824810606061  1.01420454545455 2.82528409090885  C 1.75662878787877 1.58191287878781  2.4592803030303 0.830965909091151  3.12215909090907 0.572443181818289  C 3.4535984848485 0.437026515151524  3.90767045454545 0.307765151515537  4.484375 0.184659090908849  C 5.06107954545455 0.0615530303027526  5.52840909090907 0  5.88636363636364 0  C 6.0719696969697 0  6.21117424242424 0.0184659090911509  6.30397727272727 0.0553977272728616  C 6.54261363636364 0.129261363636283  6.89393939393943 0.597064393939331  7.35795454545456 1.45880681818171  C 7.50378787878788 1.69270833333323  7.7026515151515 2.02509469696981  7.95454545454544 2.45596590909115  C 8.20643939393943 2.88683712121219  8.43844696969699 3.27769886363628  8.6505681818182 3.62855113636372  C 8.86268939393943 3.97940340909115  9.0681818181818 4.30871212121219  9.26704545454544 4.61647727272714  C 9.3068181818182 4.66571969696981  9.42282196969699 4.81960227272714  9.6150568181818 5.078125  C 9.80729166666667 5.33664772727286  9.94981060606057 5.55516098484848  10.0426136363636 5.73366477272714  C 10.1354166666667 5.9121685606061  10.1818181818182 6.08759469696981  10.1818181818182 6.25994318181829  C 10.1818181818182 6.50615530303019  9.99289772727273 6.81392045454543  9.6150568181818 7.18323863636372  C 9.23721590909093 7.55255681818171  8.82623106060606 7.89109848484848  8.38210227272727 8.19886363636372  C 7.9379734848485 8.50662878787896  7.52698863636364 8.83285984848446  7.14914772727273 9.17755681818171  C 6.7713068181818 9.52225378787896  6.58238636363636 9.80539772727286  6.58238636363636 10.0269886363637  C 6.58238636363636 10.1377840909089  6.6155303030303 10.2762784090911  6.6818181818182 10.4424715909089  C 6.74810606060606 10.6086647727271  6.80445075757576 10.7348484848485  6.85085227272727 10.8210227272729  C 6.89725378787877 10.9071969696972  6.9900568181818 11.0549242424244  7.12926136363636 11.2642045454546  C 7.26846590909093 11.4734848484845  7.34469696969699 11.5904356060607  7.35795454545456 11.6150568181817  C 8.3655303030303 13.3016098484845  9.51893939393943 14.7481060606061  10.8181818181818 15.9545454545454  C 12.1174242424242 17.1609848484845  13.6751893939394 18.2320075757573  15.4914772727273 19.1676136363637  C 15.5179924242424 19.1799242424244  15.6439393939394 19.2507102272729  15.8693181818182 19.3799715909088  C 16.094696969697 19.5092329545454  16.2537878787879 19.5954071969698  16.3465909090909 19.6384943181817  C 16.4393939393939 19.6815814393939  16.5752840909091 19.7339015151515  16.7542613636364 19.7954545454546  C 16.9332386363636 19.8570075757573  17.0823863636364 19.8877840909088  17.2017045454546 19.8877840909088  C 17.4403409090909 19.8877840909088  17.7452651515152 19.7123579545454  18.1164772727273 19.3615056818183  C 18.4876893939394 19.0106534090912  18.8390151515152 18.6290246212122  19.1704545454546 18.2166193181817  C 19.5018939393939 17.8042140151515  19.8664772727273 17.4225852272729  20.2642045454546 17.0717329545454  C 20.6619318181818 16.7208806818183  20.9933712121212 16.5454545454546  21.2585227272727 16.5454545454546  C 21.4441287878788 16.5454545454546  21.6330492424242 16.5885416666668  21.8252840909091 16.6747159090912  C 22.0175189393939 16.7608901515155  22.2528409090909 16.8932291666668  22.53125 17.0717329545454  C 22.8096590909091 17.2502367424244  22.9753787878788 17.3579545454546  23.0284090909091 17.3948863636363  C 23.3598484848485 17.5795454545454  23.7144886363636 17.7703598484845  24.0923295454546 17.9673295454546  C 24.4701704545454 18.1642992424244  24.8910984848485 18.3797348484845  25.3551136363636 18.6136363636363  C 25.8191287878788 18.8475378787878  26.1770833333334 19.0321969696973  26.4289772727273 19.1676136363637  C 27.3570075757576 19.5984848484845  27.8607954545454 19.9247159090912  27.9403409090909 20.1463068181817  Z " fill-rule="nonzero" fill="#ffffff" stroke="none" transform="matrix(1 0 0 1 119 1120 )" />
  </g>
</svg>