<?xml version="1.0" encoding="utf-8"?>
<svg version="1.1" xmlns:xlink="http://www.w3.org/1999/xlink" width="36px" height="24px" xmlns="http://www.w3.org/2000/svg">
  <g transform="matrix(1 0 0 1 -804 -1121 )">
    <path d="M 34.1632653061224 4.7968750000001  C 34.7106842737095 4.9531249999999  35.1356542617048 5.17708333333317  35.438175270108 5.4687499999999  C 36.0144057623048 6.0625000000001  36.1440576230492 6.7343749999999  35.827130852341 7.4843749999999  L 29.8847539015606 21.6406249999999  C 29.611044417767 22.3072916666666  29.0600240096039 22.8671875000001  28.2316926770708 23.3203125  C 27.4033613445378 23.7734374999999  26.5210084033613 24  25.5846338535414 24  L 5.63985594237698 24  C 4.53061224489795 24  3.4609843937576 23.7213541666668  2.43097238895558 23.1640624999999  C 1.40096038415373 22.6067708333333  0.684273709483818 21.9218749999999  0.280912364946005 21.1093750000001  C -0.0648259303721943 20.4114583333332  -0.079231692677098 19.7500000000001  0.237695078031209 19.125  C 0.237695078031209 19.0833333333334  0.259303721488607 18.9427083333334  0.302521008403403 18.703125  C 0.345738295318199 18.4635416666666  0.374549819928006 18.2708333333333  0.388955582232995 18.1249999999999  C 0.403361344537814 18.0416666666666  0.381752701080416 17.9296875  0.32412965186063 17.7890625  C 0.266506602641016 17.6484375  0.244897959183618 17.5468750000001  0.259303721488607 17.484375  C 0.288115246098414 17.3697916666668  0.345738295318199 17.2604166666667  0.432172869147621 17.15625  C 0.518607442977213 17.0520833333333  0.637454981992732 16.9296874999999  0.788715486194519 16.7890624999999  C 0.939975990396135 16.6484374999999  1.05882352941182 16.5260416666668  1.14525810324125 16.4218750000001  C 1.47659063625446 16.0260416666666  1.80072028811526 15.5494791666667  2.11764705882348 14.9921875000001  C 2.4345738295317 14.4348958333332  2.65066026410568 13.9583333333333  2.76590636254491 13.5625000000001  C 2.80912364945971 13.4583333333334  2.812725090036 13.3020833333333  2.77671068427361 13.0937500000001  C 2.74069627851139 12.8854166666666  2.7370948379351 12.7395833333333  2.76590636254491 12.65625  C 2.80912364945971 12.5416666666668  2.93157262905152 12.3958333333332  3.13325330132051 12.2187499999999  C 3.33493397358933 12.0416666666666  3.45738295318131 11.9218750000001  3.50060024009611 11.859375  C 3.80312124849934 11.484375  4.10564225690274 11.0052083333333  4.40816326530614 10.4218750000001  C 4.71068427370955 9.83854166666663  4.89075630252114 9.36979166666663  4.94837935174058 9.0156250000001  C 4.96278511404557 8.9218750000001  4.94477791116447 8.75520833333327  4.89435774309726 8.5156249999999  C 4.84393757503005 8.27604166666683  4.84753901560617 8.13020833333317  4.90516206482596 8.0781250000001  C 4.96278511404557 7.94270833333317  5.12124849939977 7.78385416666683  5.38055222088838 7.6015624999999  C 5.63985594237698 7.41927083333327  5.79831932773118 7.30208333333327  5.85594237695079 7.2499999999999  C 6.12965186074439 6.97916666666663  6.43577430972391 6.5390625  6.77430972388953 5.9296875  C 7.11284513805515 5.3203125  7.31092436974785 4.81770833333327  7.36854741896764 4.4218750000001  C 7.38295318127246 4.33854166666683  7.36134453781506 4.20572916666673  7.30372148859544 4.0234375000001  C 7.24609843937583 3.84114583333317  7.23169267707084 3.703125  7.26050420168065 3.609375  C 7.28931572629062 3.52604166666673  7.35414165666265 3.43229166666673  7.45498199279706 3.328125  C 7.55582232893147 3.22395833333327  7.68547418967586 3.10416666666673  7.84393757503005 2.9687500000001  C 8.00240096038425 2.83333333333317  8.12484993997606 2.72395833333337  8.21128451380548 2.6406250000001  C 8.32653061224488 2.5156249999999  8.44537815126057 2.35677083333327  8.56782713085238 2.1640624999999  C 8.69027611044419 1.97135416666683  8.79831932773118 1.7890624999999  8.89195678271318 1.6171875  C 8.98559423769501 1.4453125000001  9.10084033613441 1.2578125000001  9.23769507803121 1.0546875  C 9.37454981992801 0.851562499999904  9.51500600240092 0.684895833333365  9.65906362545013 0.554687500000096  C 9.80312124849934 0.424479166666826  9.99399759903963 0.302083333333174  10.2316926770708 0.1875  C 10.469387755102 0.0729166666668262  10.7286914765907 0.0130208333332695  11.0096038415367 0.00781249999990426  C 11.2905162064827 0.00260416666682623  11.6326530612246 0.0312499999999043  12.0360144057622 0.09375  L 12.014405762305 0.140625  C 12.561824729892 0.046875  12.9291716686674 0  13.1164465786314 0  L 29.5606242496998 0  C 30.626650660264 0  31.4477791116447 0.29166666666673  32.0240096038415 0.874999999999904  C 32.6002400960385 1.45833333333337  32.7298919567827 2.13541666666683  32.4129651860745 2.90625  L 26.4921968787515 17.0625  C 25.9735894357743 18.3020833333332  25.4585834333733 19.1015625  24.9471788715487 19.4609374999999  C 24.4357743097239 19.8203125000001  23.5102040816328 19.9999999999999  22.1704681872749 20  L 3.39255702280911 20  C 3.00360144057629 19.9999999999999  2.72989195678269 20.0781250000001  2.57142857142867 20.2343749999999  C 2.41296518607447 20.4010416666667  2.40576230492206 20.625  2.5498199279711 20.90625  C 2.8955582232893 21.6354166666668  3.93277310924373 22.0000000000001  5.66146458583421 22  L 25.6062424969987 22  C 26.0240096038415 22.0000000000001  26.4273709483795 21.9192708333334  26.8163265306123 21.7578124999999  C 27.2052821128451 21.5963541666667  27.4573829531813 21.3802083333334  27.5726290516205 21.1093750000001  L 34.0552220888355 5.6875000000001  C 34.1560624249699 5.45833333333317  34.1920768307323 5.16145833333337  34.1632653061224 4.7968750000001  Z M 12.9003601440576 4.5  L 12.4465786314526 5.5000000000001  C 12.3889555822328 5.63541666666673  12.4033613445378 5.75260416666673  12.4897959183672 5.8515625000001  C 12.5762304921968 5.95052083333317  12.7202881152462 6  12.921968787515 6  L 26.0600240096039 6  C 26.2472989195679 6  26.4309723889556 5.95052083333317  26.611044417767 5.8515625000001  C 26.7911164465786 5.75260416666673  26.9099639855943 5.63541666666673  26.9675870348139 5.5000000000001  L 27.4213685474189 4.5  C 27.4789915966387 4.36458333333337  27.4645858343337 4.24739583333337  27.3781512605041 4.1484375  C 27.2917166866747 4.04947916666663  27.1476590636255 4.0000000000001  26.9459783913565 4  L 13.8079231692677 4  C 13.6206482593038 4.0000000000001  13.436974789916 4.04947916666663  13.2569027611044 4.1484375  C 13.0768307322929 4.24739583333337  12.9579831932774 4.36458333333337  12.9003601440576 4.5  Z M 11.1068427370948 8.5000000000001  L 10.6530612244898 9.4999999999999  C 10.5954381752701 9.63541666666683  10.6098439375751 9.75260416666683  10.6962785114046 9.8515624999999  C 10.782713085234 9.95052083333327  10.9267707082834 10.0000000000001  11.1284513805522 10  L 24.266506602641 10  C 24.453781512605 10.0000000000001  24.6374549819927 9.95052083333327  24.8175270108043 9.8515624999999  C 24.9975990396159 9.75260416666683  25.1164465786314 9.63541666666683  25.1740696278511 9.4999999999999  L 25.6278511404562 8.5000000000001  C 25.6854741896759 8.36458333333317  25.6710684273709 8.24739583333317  25.5846338535414 8.1484375000001  C 25.4981992797119 8.04947916666673  25.3541416566626 7.9999999999999  25.1524609843937 8  L 12.014405762305 8  C 11.827130852341 7.9999999999999  11.6434573829531 8.04947916666673  11.4633853541417 8.1484375000001  C 11.2833133253303 8.24739583333317  11.1644657863146 8.36458333333317  11.1068427370948 8.5000000000001  Z " fill-rule="nonzero" fill="#ffffff" stroke="none" transform="matrix(1 0 0 1 804 1121 )" />
  </g>
</svg>