<?xml version="1.0" encoding="utf-8"?>
<svg version="1.1" xmlns:xlink="http://www.w3.org/1999/xlink" width="96px" height="64px" xmlns="http://www.w3.org/2000/svg">
  <g transform="matrix(1 0 0 1 -1152 -887 )">
    <path d="M 50.3571428571428 63.25  C 49.7142857142857 63.75  48.9285714285715 64  48 64  C 47.0714285714285 64  46.2857142857143 63.75  45.6428571428572 63.25  L 12.2142857142857 38.1666666666667  C 11.8571428571428 37.9444444444445  11.3660714285715 37.5833333333333  10.7410714285715 37.0833333333333  C 10.1160714285715 36.5833333333333  9.125 35.6736111111111  7.76785714285721 34.3541666666667  C 6.41071428571426 33.0347222222222  5.19642857142852 31.6805555555555  4.125 30.2916666666667  C 3.05357142857148 28.9027777777778  2.09821428571426 27.2222222222222  1.25892857142852 25.25  C 0.419642857142786 23.2777777777778  0 21.3611111111111  0 19.5  C 0 13.3888888888889  2.26785714285721 8.61111111111105  6.80357142857148 5.16666666666671  C 11.3392857142857 1.72222222222224  17.6071428571428 0  25.6071428571428 0  C 27.8214285714285 0  30.0803571428572 0.298611111111053  32.3839285714285 0.89583333333329  C 34.6875 1.49305555555553  36.8303571428572 2.29861111111105  38.8125 3.3125  C 40.7946428571428 4.32638888888895  42.5 5.27777777777776  43.9285714285715 6.16666666666671  C 45.3571428571428 7.05555555555553  46.7142857142857 8  48 9  C 49.2857142857143 8  50.6428571428572 7.05555555555553  52.0714285714285 6.16666666666671  C 53.5 5.27777777777776  55.2053571428572 4.32638888888895  57.1875 3.3125  C 59.1696428571428 2.29861111111105  61.3125 1.49305555555553  63.6160714285715 0.89583333333329  C 65.9196428571428 0.298611111111053  68.1785714285715 0  70.3928571428572 0  C 78.3928571428572 0  84.6607142857143 1.72222222222224  89.1964285714285 5.16666666666671  C 93.7321428571429 8.61111111111105  96 13.3888888888889  96 19.5  C 96 25.6388888888889  91.9107142857143 31.8888888888889  83.7321428571428 38.25  L 50.3571428571428 63.25  Z " fill-rule="nonzero" fill="#ff6666" stroke="none" transform="matrix(1 0 0 1 1152 887 )" />
  </g>
</svg>