<?xml version="1.0" encoding="utf-8"?>
<svg version="1.1" xmlns:xlink="http://www.w3.org/1999/xlink" width="88px" height="68px" xmlns="http://www.w3.org/2000/svg">
  <g transform="matrix(1 0 0 1 -463 -885 )">
    <path d="M 37.6291666666667 40.9699034639409  C 39.9208333333333 39.0391822827938  41.0666666666667 36.7094453908765  41.0666666666667 33.9806927881885  C 41.0666666666667 31.2519401855006  39.9208333333333 28.9222032935832  37.6291666666667 26.9914821124361  C 35.3375 25.060760931289  32.5722222222222 24.0954003407155  29.3333333333333 24.0954003407155  C 26.0944444444444 24.0954003407155  23.3291666666667 25.060760931289  21.0375 26.9914821124361  C 18.7458333333333 28.9222032935832  17.6 31.2519401855006  17.6 33.9806927881885  C 17.6 36.7094453908765  18.7458333333333 39.0391822827938  21.0375 40.9699034639409  C 23.3291666666667 42.900624645088  26.0944444444444 43.8659852356616  29.3333333333333 43.8659852356616  C 32.5722222222222 43.8659852356616  35.3375 42.900624645088  37.6291666666667 40.9699034639409  Z M 74.5479166666667 57.2458830210107  C 75.69375 56.2805224304373  76.2666666666667 55.1156539844785  76.2666666666667 53.7512776831346  C 76.2666666666667 52.4126443308726  75.6861111111111 51.2542116221844  74.525 50.2759795570698  C 73.3638888888889 49.2977474919553  71.9888888888889 48.808631459398  70.4 48.808631459398  C 68.8111111111111 48.808631459398  67.4361111111111 49.2977474919553  66.275 50.2759795570698  C 65.1138888888889 51.2542116221844  64.5333333333333 52.4126443308726  64.5333333333333 53.7512776831346  C 64.5333333333333 55.1156539844785  65.10625 56.2805224304373  66.2520833333333 57.2458830210107  C 67.3979166666667 58.2112436115843  68.7805555555556 58.6939239068711  70.4 58.6939239068711  C 72.0194444444444 58.6939239068711  73.4020833333333 58.2112436115843  74.5479166666667 57.2458830210107  Z M 74.5479166666667 17.7047132311187  C 75.69375 16.7393526405451  76.2666666666667 15.5744841945864  76.2666666666667 14.2101078932425  C 76.2666666666667 12.8714745409804  75.6861111111111 11.7130418322922  74.525 10.7348097671777  C 73.3638888888889 9.75657770206317  71.9888888888889 9.26746166950602  70.4 9.26746166950602  C 68.8111111111111 9.26746166950602  67.4361111111111 9.75657770206317  66.275 10.7348097671777  C 65.1138888888889 11.7130418322922  64.5333333333333 12.8714745409804  64.5333333333333 14.2101078932425  C 64.5333333333333 15.5744841945864  65.10625 16.7393526405451  66.2520833333333 17.7047132311187  C 67.3979166666667 18.6700738216922  68.7805555555556 19.1527541169789  70.4 19.1527541169789  C 72.0194444444444 19.1527541169789  73.4020833333333 18.6700738216922  74.5479166666667 17.7047132311187  Z M 58.3458333333333 29.7137989778535  C 58.5597222222222 29.9326140450502  58.6666666666667 30.1836077985993  58.6666666666667 30.4667802385009  L 58.6666666666667 37.6104486087451  C 58.6666666666667 37.8678780995647  58.5597222222222 38.1188718531138  58.3458333333333 38.3634298693923  C 58.1319444444445 38.607987885671  57.8875 38.7431383683513  57.6125 38.7688813174333  L 50.5083333333333 39.6956274843839  C 50.1722222222222 40.5966307022525  49.6833333333333 41.574862767367  49.0416666666667 42.6303236797274  C 50.0805555555555 43.8659852356616  51.4555555555555 45.3462048078743  53.1666666666667 47.0709823963657  C 53.3805555555556 47.3541548362673  53.4875 47.6115843270869  53.4875 47.8432708688246  C 53.4875 48.152186257808  53.3805555555556 48.3967442740867  53.1666666666667 48.5769449176604  C 52.4638888888889 49.3492333901193  51.2034722222222 50.501230361537  49.3854166666667 52.0329358319137  C 47.5673611111111 53.5646413022904  46.3680555555555 54.3304940374787  45.7875 54.3304940374787  C 45.4513888888889 54.3304940374787  45.1305555555556 54.2403937156919  44.825 54.0601930721181  L 39.5541666666667 50.5848949460534  C 38.4236111111111 51.0740109786107  37.2472222222222 51.4730266893811  36.025 51.7819420783645  C 35.6888888888889 54.5621805792164  35.3375 56.5572591330683  34.9708333333333 57.7671777399205  C 34.7569444444445 58.3850085178875  34.2986111111111 58.6939239068711  33.5958333333333 58.6939239068711  L 25.0708333333333 58.6939239068711  C 24.7347222222222 58.6939239068711  24.4291666666667 58.5973878478137  24.1541666666667 58.4043157296991  C 23.8791666666667 58.2112436115843  23.7263888888889 57.9859928071172  23.6958333333333 57.7285633162976  L 22.6416666666667 51.8205565019875  C 21.6027777777778 51.5631270111679  20.4569444444444 51.1641113003975  19.2041666666667 50.6235093696763  L 13.7958333333333 54.0601930721181  C 13.5819444444444 54.2403937156919  13.2763888888889 54.3304940374787  12.8791666666667 54.3304940374787  C 12.5430555555556 54.3304940374787  12.2222222222222 54.2275222411508  11.9166666666667 54.0215786484952  C 7.51666666666668 50.5977664205943  5.31666666666666 48.5383304940375  5.31666666666666 47.8432708688246  C 5.31666666666666 47.6115843270869  5.42361111111111 47.3670263108082  5.63749999999999 47.1095968199886  C 5.94305555555556 46.7491955328412  6.56944444444446 46.0670073821692  7.51666666666668 45.0630323679727  C 8.4638888888889 44.0590573537762  9.18194444444444 43.2738974067764  9.67083333333332 42.7075525269734  C 8.96805555555557 41.574862767367  8.43333333333334 40.5194018550067  8.06666666666666 39.5411697898921  L 1.09999999999999 38.6144236229416  C 0.794444444444451 38.5886806738596  0.534722222222229 38.4664016657202  0.320833333333326 38.2475865985235  C 0.106944444444451 38.0287715313269  0 37.7777777777778  0 37.4946053378762  L 0 30.350936967632  C 0 30.0935074768124  0.106944444444451 29.8425137232633  0.320833333333326 29.5979557069846  C 0.534722222222229 29.3533976907061  0.779166666666669 29.2182472080258  1.05416666666667 29.1925042589438  L 8.15833333333333 28.2657580919932  C 8.49444444444444 27.3647548741245  8.98333333333332 26.38652280901  9.625 25.3310618966497  C 8.58611111111111 24.0954003407155  7.21111111111111 22.6151807685027  5.5 20.8904031800114  C 5.2861111111111 20.6072307401098  5.17916666666667 20.3498012492902  5.17916666666667 20.1181147075525  C 5.17916666666667 19.809199318569  5.2861111111111 19.5517698277494  5.5 19.3458262350937  C 6.17222222222222 18.5735377626348  7.42500000000001 17.4279765284876  9.25833333333333 15.9091425326519  C 11.0916666666667 14.3903085368162  12.2986111111111 13.6308915388984  12.8791666666667 13.6308915388984  C 13.2152777777778 13.6308915388984  13.5361111111111 13.7209918606852  13.8416666666667 13.9011925042589  L 19.1125 17.3764906303237  C 20.1513888888889 16.9131175468484  21.3277777777778 16.501230361537  22.6416666666667 16.1408290743896  C 22.9777777777778 13.3605905735378  23.3291666666667 11.3783834942268  23.6958333333333 10.1942078364566  C 23.9097222222222 9.57637705848947  24.3680555555556 9.26746166950602  25.0708333333333 9.26746166950602  L 33.5958333333333 9.26746166950602  C 33.9319444444444 9.26746166950602  34.2375 9.36399772856328  34.5125 9.55706984667802  C 34.7875 9.75014196479276  34.9402777777778 9.97539276925988  34.9708333333333 10.2328222600795  L 36.025 16.1408290743896  C 37.0638888888889 16.3982585652092  38.2097222222222 16.7972742759796  39.4625 17.3378762067007  L 44.8708333333333 13.9011925042589  C 45.1152777777778 13.7209918606852  45.4208333333333 13.6308915388984  45.7875 13.6308915388984  C 46.1236111111111 13.6308915388984  46.4444444444445 13.7338633352261  46.75 13.9398069278819  C 51.15 17.3636191557827  53.35 19.4230550823396  53.35 20.1181147075525  C 53.35 20.3240583002082  53.2430555555555 20.5686163164868  53.0291666666667 20.8517887563884  C 52.6625 21.2636759416998  52.0208333333333 21.9587355669128  51.1041666666667 22.9369676320273  C 50.1875 23.9151996971418  49.5 24.6874881696006  49.0416666666667 25.2538330494037  C 49.7444444444445 26.4894946053379  50.2638888888889 27.5449555176983  50.6 28.420215786485  L 57.5666666666667 29.3083475298126  C 57.8722222222222 29.3598334279766  58.1319444444445 29.4949839106569  58.3458333333333 29.7137989778535  Z M 81.1708333333333 49.8512208972174  C 85.7236111111111 50.2373651334469  88 50.6363808442173  88 51.0482680295287  L 88 56.4542873367404  C 88 56.8661745220519  85.7236111111111 57.2651902328223  81.1708333333333 57.6513344690517  C 80.8041666666667 58.3463940942646  80.3458333333333 59.0157107703956  79.7958333333333 59.6592844974447  C 81.3541666666667 62.5682377437063  82.1333333333333 64.3445012303615  82.1333333333333 64.9880749574106  C 82.1333333333333 65.0910467537384  82.0722222222222 65.1811470755252  81.95 65.2583759227712  C 78.2222222222222 67.0861253075904  76.3277777777778 68  76.2666666666667 68  C 76.0222222222222 68  75.3194444444445 67.3950406965739  74.1583333333333 66.1851220897217  C 72.9972222222222 64.9752034828696  72.2027777777778 64.0999432140829  71.775 63.5593412833617  C 71.1638888888889 63.6108271815257  70.7055555555556 63.6365701306077  70.4 63.6365701306077  C 70.0944444444444 63.6365701306077  69.6361111111111 63.6108271815257  69.025 63.5593412833617  C 68.5972222222222 64.0999432140829  67.8027777777778 64.9752034828696  66.6416666666667 66.1851220897217  C 65.4805555555556 67.3950406965739  64.7777777777778 68  64.5333333333333 68  C 64.4722222222222 68  62.5777777777778 67.0861253075904  58.85 65.2583759227712  C 58.7277777777778 65.1811470755252  58.6666666666667 65.0910467537384  58.6666666666667 64.9880749574106  C 58.6666666666667 64.3445012303615  59.4458333333333 62.5682377437063  61.0041666666667 59.6592844974447  C 60.4541666666667 59.0157107703956  59.9958333333333 58.3463940942646  59.6291666666667 57.6513344690517  C 55.0763888888889 57.2651902328223  52.8 56.8661745220519  52.8 56.4542873367404  L 52.8 51.0482680295287  C 52.8 50.6363808442173  55.0763888888889 50.2373651334469  59.6291666666667 49.8512208972174  C 60.0263888888889 49.1046753738406  60.4847222222222 48.4353586977096  61.0041666666667 47.8432708688246  C 59.4458333333333 44.934317622563  58.6666666666667 43.1580541359076  58.6666666666667 42.5144804088586  C 58.6666666666667 42.4115086125307  58.7277777777778 42.3214082907439  58.85 42.2441794434981  C 58.9722222222222 42.1926935453341  56.6194444444445 44.4065871663827  57.5666666666667 43.9432140829074  C 58.5138888888889 43.4798409994321  62.3027777777778 40.5708877531705  63.1583333333333 40.1590005678592  C 64.0138888888889 39.7471133825478  64.4722222222222 39.5411697898921  64.5333333333333 39.5411697898921  C 64.7777777777778 39.5411697898921  65.4805555555556 40.1396933560477  66.6416666666667 41.3367404883588  C 67.8027777777778 42.5337876206701  68.5972222222222 43.4026121521863  69.025 43.9432140829074  C 69.6361111111111 43.8917281847436  70.0944444444444 43.8659852356616  70.4 43.8659852356616  C 70.7055555555556 43.8659852356616  71.1638888888889 43.8917281847436  71.775 43.9432140829074  C 73.3333333333333 42.1154646980882  74.7388888888889 40.6738595494984  75.9916666666667 39.6183986371379  L 76.2666666666667 39.5411697898921  C 76.3888888888889 39.5411697898921  78.2833333333334 40.4421730077607  81.95 42.2441794434981  C 82.0722222222222 42.3214082907439  82.1333333333333 42.4115086125307  82.1333333333333 42.5144804088586  C 82.1333333333333 43.1580541359076  81.3541666666667 44.934317622563  79.7958333333333 47.8432708688246  C 80.3152777777778 48.4353586977096  80.7736111111111 49.1046753738406  81.1708333333333 49.8512208972174  Z M 81.1708333333333 10.3100511073254  C 85.7236111111111 10.6961953435548  88 11.0952110543252  88 11.5070982396365  L 88 16.9131175468484  C 88 17.3250047321598  85.7236111111111 17.7240204429302  81.1708333333333 18.1101646791595  C 80.8041666666667 18.8052243043725  80.3458333333333 19.4745409805035  79.7958333333333 20.1181147075525  C 81.3541666666667 23.0270679538141  82.1333333333333 24.8033314404694  82.1333333333333 25.4469051675185  C 82.1333333333333 25.5498769638463  82.0722222222222 25.6399772856331  81.95 25.717206132879  C 78.2222222222222 27.5449555176983  76.3277777777778 28.4588302101079  76.2666666666667 28.4588302101079  C 76.0222222222222 28.4588302101079  75.3194444444445 27.8538709066818  74.1583333333333 26.6439522998296  C 72.9972222222222 25.4340336929774  72.2027777777778 24.5587734241908  71.775 24.0181714934696  C 71.1638888888889 24.0696573916335  70.7055555555556 24.0954003407155  70.4 24.0954003407155  C 70.0944444444444 24.0954003407155  69.6361111111111 24.0696573916335  69.025 24.0181714934696  C 68.5972222222222 24.5587734241908  67.8027777777778 25.4340336929774  66.6416666666667 26.6439522998296  C 65.4805555555556 27.8538709066818  64.7777777777778 28.4588302101079  64.5333333333333 28.4588302101079  C 64.4722222222222 28.4588302101079  62.5777777777778 27.5449555176983  58.85 25.717206132879  C 58.7277777777778 25.6399772856331  58.6666666666667 25.5498769638463  58.6666666666667 25.4469051675185  C 58.6666666666667 24.8033314404694  59.4458333333333 23.0270679538141  61.0041666666667 20.1181147075525  C 60.4541666666667 19.4745409805035  59.9958333333333 18.8052243043725  59.6291666666667 18.1101646791595  C 55.0763888888889 17.7240204429302  52.8 17.3250047321598  52.8 16.9131175468484  L 52.8 11.5070982396365  C 52.8 11.0952110543252  55.0763888888889 10.6961953435548  59.6291666666667 10.3100511073254  C 60.0263888888889 9.56350558394854  60.4847222222222 8.89418890781758  61.0041666666667 8.30210107893242  C 59.4458333333333 5.39314783267082  58.6666666666667 3.61688434601547  58.6666666666667 2.97331061896648  C 58.6666666666667 2.8703388226387  58.7277777777778 2.78023850085174  58.85 2.70300965360593  C 58.9722222222222 2.65152375544199  59.5069444444445 2.39409426462237  60.4541666666667 1.93072118114708  C 61.4013888888889 1.46734809767179  62.3027777777778 1.02971796327847  63.1583333333333 0.617830777967015  C 64.0138888888889 0.205943592655672  64.4722222222222 0  64.5333333333333 0  C 64.7777777777778 0  65.4805555555556 0.598523566155563  66.6416666666667 1.7955706984668  C 67.8027777777778 2.99261783077793  68.5972222222222 3.86144236229416  69.025 4.40204429301536  C 69.6361111111111 4.35055839485142  70.0944444444444 4.32481544576945  70.4 4.32481544576945  C 70.7055555555556 4.32481544576945  71.1638888888889 4.35055839485142  71.775 4.40204429301536  C 73.3333333333333 2.57429490819607  74.7388888888889 1.13268975960625  75.9916666666667 0.0772288472459195  L 76.2666666666667 0  C 76.3888888888889 0  78.2833333333334 0.901003217868606  81.95 2.70300965360593  C 82.0722222222222 2.78023850085174  82.1333333333333 2.8703388226387  82.1333333333333 2.97331061896648  C 82.1333333333333 3.61688434601547  81.3541666666667 5.39314783267082  79.7958333333333 8.30210107893242  C 80.3152777777778 8.89418890781758  80.7736111111111 9.56350558394854  81.1708333333333 10.3100511073254  Z " fill-rule="nonzero" fill="#ff6666" stroke="none" transform="matrix(1 0 0 1 463 885 )" />
  </g>
</svg>