<?xml version="1.0" encoding="utf-8"?>
<svg version="1.1" xmlns:xlink="http://www.w3.org/1999/xlink" width="142px" height="90px" xmlns="http://www.w3.org/2000/svg">
  <g transform="matrix(1 0 0 1 -767 -880 )">
    <path d="M 8.38194444444444 53.4065934065934  C 9.03935185185185 54.7252747252747  10.1898148148148 55.3846153846154  11.8333333333333 55.3846153846154  C 13.4768518518519 55.3846153846154  14.6273148148148 54.7252747252747  15.2847222222222 53.4065934065934  C 15.9421296296296 52.0879120879121  15.9421296296296 50.7692307692308  15.2847222222222 49.4505494505495  C 14.6273148148148 48.1318681318681  13.4768518518519 47.4725274725275  11.8333333333333 47.4725274725275  C 10.1898148148148 47.4725274725275  9.03935185185185 48.1318681318681  8.38194444444444 49.4505494505495  C 7.72453703703704 50.7692307692308  7.72453703703704 52.0879120879121  8.38194444444444 53.4065934065934  Z M 104.496961805556 56.3427197802198  C 104.353153935185 54.7149725274725  103.7265625 53.2005494505494  102.6171875 51.7994505494505  C 102.20630787037 51.2637362637363  101.415364583333 50.2335164835165  100.244357638889 48.7087912087912  C 99.0733506944444 47.1840659340659  98.220775462963 46.0714285714286  97.6866319444444 45.3708791208791  C 97.1524884259259 44.6703296703297  96.3718171296296 43.6607142857143  95.3446180555556 42.342032967033  C 94.3174189814815 41.0233516483516  93.4442997685185 39.9313186813187  92.7252604166667 39.0659340659341  C 92.0062210648148 38.2005494505495  91.1741898148148 37.2321428571429  90.2291666666667 36.1607142857143  C 89.2841435185185 35.0892857142857  88.3596643518519 34.0796703296703  87.4557291666667 33.1318681318681  L 79.7517361111111 41.7857142857143  C 76.3414351851852 45.6593406593407  72.0580150462963 47.554945054945  66.9014756944444 47.4725274725275  C 61.7449363425926 47.3901098901099  57.5231481481482 45.3708791208791  54.2361111111111 41.4148351648352  C 51.8940972222222 38.5714285714286  50.7333622685185 35.3159340659341  50.75390625 31.6483516483516  C 50.7744502314815 27.9807692307692  51.9762731481482 24.7458791208791  54.359375 21.9436813186813  L 65.2682291666667 9.21016483516483  C 64.3642939814815 8.75686813186812  63.3165509259259 8.4168956043956  62.125 8.19024725274725  C 60.9334490740741 7.96359890109889  59.9576099537037 7.83997252747252  59.1974826388889 7.81936813186813  C 58.4373553240741 7.79876373626373  57.2766203703704 7.80906593406593  55.7152777777778 7.85027472527473  C 54.1539351851852 7.89148351648351  53.1472800925926 7.91208791208791  52.6953125 7.91208791208791  C 48.9152199074074 7.91208791208791  45.6692708333333 9.27197802197802  42.9574652777778 11.9917582417582  L 33.2196180555556 21.7582417582418  L 24 21.7582417582418  L 24 55.3846153846154  C 23.8721064814815 55.3846153846154  24.3035300925926 55.3743131868132  24.9609375 55.3537087912088  C 25.6183449074074 55.3331043956044  26.0703125 55.3331043956044  26.3168402777778 55.3537087912088  C 26.5633680555556 55.3743131868132  26.9639756944444 55.415521978022  27.5186631944444 55.4773351648352  C 28.0733506944444 55.5391483516483  28.4945023148148 55.6318681318681  28.7821180555556 55.7554945054945  C 29.0697337962963 55.8791208791209  29.4292534722222 56.0542582417582  29.8606770833333 56.2809065934066  C 30.2921006944444 56.5075549450549  30.6721643518519 56.7857142857143  31.0008680555556 57.1153846153846  L 49.3055555555556 75.1648351648352  C 54.0306712962963 79.739010989011  58.6941550925926 82.0260989010989  63.2960069444444 82.0260989010989  C 66.5008680555556 82.0260989010989  69.0688657407407 81.0576923076923  71 79.1208791208791  C 73.3420138888889 79.9450549450549  75.6532118055556 79.7802197802198  77.93359375 78.6263736263736  C 80.2139756944444 77.4725274725275  81.7034143518519 75.7211538461539  82.4019097222222 73.3722527472527  C 85.4424189814815 73.6195054945055  88.0515046296296 72.7129120879121  90.2291666666667 70.6524725274725  C 91.0509259259259 69.9107142857143  91.7905092592593 68.9732142857143  92.4479166666667 67.8399725274725  C 93.1053240740741 66.7067307692308  93.3929398148148 65.6662087912088  93.3107638888889 64.7184065934066  C 93.7216435185185 65.1304945054945  94.6050347222222 65.3365384615385  95.9609375 65.3365384615385  C 97.7277199074074 65.3365384615385  99.3096064814815 64.9038461538461  100.706597222222 64.0384615384615  C 102.103587962963 63.1730769230769  103.120515046296 62.081043956044  103.757378472222 60.7623626373626  C 104.394241898148 59.4436813186813  104.640769675926 57.970467032967  104.496961805556 56.3427197802198  Z M 108.71875 46.7307692307692  C 110.855324074074 49.4505494505495  112.087962962963 52.3351648351648  112.416666666667 55.3846153846154  L 118 55.3846153846154  L 118 23.7362637362637  L 112.6015625 23.7362637362637  L 102.925347222222 12.6098901098901  C 100.213541666667 9.47802197802197  96.7416087962963 7.91208791208791  92.5095486111111 8  L 82.2170138888889 8  C 78.5601851851852 7.91208791208791  75.5607638888889 9.29258241758241  73.21875 12.0535714285714  L 60.3376736111111 27.0741758241758  C 59.1872106481482 28.4340659340659  58.6119791666667 29.9793956043956  58.6119791666667 31.7101648351648  C 58.6119791666667 33.4409340659341  59.1666666666667 34.9862637362637  60.2760416666667 36.3461538461538  C 62.0428240740741 38.4478021978022  64.302662037037 39.5192307692308  67.0555555555556 39.5604395604396  C 69.8084490740741 39.6016483516484  72.0888310185185 38.592032967033  73.8967013888889 36.5315934065934  L 85.7916666666667 23.0563186813187  C 86.8188657407407 22.1085164835165  87.91796875 21.665521978022  89.0889756944444 21.7273351648352  C 90.2599826388889 21.7891483516484  91.2255497685185 22.345467032967  91.9856770833333 23.3962912087912  C 92.7458043981482 24.4471153846154  92.9204282407407 25.6112637362637  92.5095486111111 26.8887362637363  C 93.1669560185185 27.6717032967033  94.3174189814815 28.9697802197802  95.9609375 30.782967032967  C 97.6044560185185 32.5961538461538  98.8370949074074 33.9972527472527  99.6588541666667 34.9862637362637  C 100.850405092593 36.4697802197802  102.545283564815 38.643543956044  104.743489583333 41.5075549450549  C 106.941695601852 44.3715659340659  108.266782407407 46.1126373626374  108.71875 46.7307692307692  Z M 126.715277777778 53.4065934065934  C 127.372685185185 54.7252747252747  128.523148148148 55.3846153846154  130.166666666667 55.3846153846154  C 131.810185185185 55.3846153846154  132.960648148148 54.7252747252747  133.618055555556 53.4065934065934  C 134.275462962963 52.0879120879121  134.275462962963 50.7692307692308  133.618055555556 49.4505494505495  C 132.960648148148 48.1318681318681  131.810185185185 47.4725274725275  130.166666666667 47.4725274725275  C 128.523148148148 47.4725274725275  127.372685185185 48.1318681318681  126.715277777778 49.4505494505495  C 126.05787037037 50.7692307692308  126.05787037037 52.0879120879121  126.715277777778 53.4065934065934  Z M 140.828993055556 16.9986263736264  C 141.609664351852 17.7815934065934  142 18.7087912087912  142 19.7802197802198  L 142 59.3406593406593  C 142 60.4120879120879  141.609664351852 61.3392857142857  140.828993055556 62.1222527472527  C 140.048321759259 62.9052197802198  139.123842592593 63.2967032967033  138.055555555556 63  L 111.307291666667 63  C 110.197916666667 65.9752747252747  108.513310185185 68.1696428571429  106.253472222222 69.8798076923077  C 103.993634259259 71.5899725274725  101.425636574074 72.6510989010989  98.5494791666667 73.0631868131868  C 97.1935763888889 75.0412087912088  95.5397858796296 76.720467032967  93.5881076388889 78.1009615384615  C 91.6364293981482 79.481456043956  89.5306712962963 80.418956043956  87.2708333333333 80.9134615384615  C 85.5451388888889 83.0975274725275  83.3982928240741 84.7767857142857  80.8302951388889 85.9512362637363  C 78.2622974537037 87.1256868131868  75.6223958333333 87.6304945054945  72.9105902777778 87.4656593406593  C 70.4453125 88.8667582417582  67.8567708333333 89.6806318681319  65.1449652777778 89.9072802197802  C 62.4331597222222 90.1339285714286  59.8138020833333 89.845467032967  57.2868923611111 89.0418956043956  C 54.7599826388889 88.2383241758242  52.3563368055556 87.135989010989  50.0759548611111 85.7348901098901  C 47.7955729166667 84.3337912087912  45.6692708333333 82.6648351648352  43.6970486111111 80.728021978022  L 26.0086805555556 63  L 3.94444444444444 63  C 2.87615740740741 63.2967032967033  1.95167824074074 62.9052197802198  1.17100694444444 62.1222527472527  C 0.390335648148148 61.3392857142857  0 60.4120879120879  0 59.3406593406593  L 0 17.8021978021978  C 0 16.7307692307692  0.390335648148148 15.8035714285714  1.17100694444444 15.0206043956044  C 1.95167824074074 14.2376373626374  2.87615740740741 13.8461538461538  3.94444444444444 14  L 29.8914930555556 14  C 30.466724537037 13.2692307692308  31.4322916666667 12.2802197802198  32.7881944444444 10.8791208791209  C 34.1440972222222 9.47802197802197  35.1199363425926 8.48901098901099  35.7157118055556 7.91208791208791  C 36.3114872685185 7.33516483516483  37.2154224537037 6.51098901098901  38.4275173611111 5.43956043956044  C 39.6396122685185 4.36813186813186  40.6770833333333 3.59546703296702  41.5399305555556 3.12156593406593  C 42.4027777777778 2.64766483516483  43.4505208333333 2.12225274725274  44.6831597222222 1.54532967032967  C 45.9157986111111 0.96840659340658  47.189525462963 0.566620879120867  48.5043402777778 0.339972527472526  C 49.8191550925926 0.113324175824175  51.2161458333333 0  52.6953125 0  L 59.90625 0  C 63.9739583333333 0  67.6924189814815 1.15384615384614  71.0616319444444 3.46153846153846  C 74.4308449074074 1.15384615384614  78.1493055555556 0  82.2170138888889 0  L 92.5095486111111 0  C 93.9476273148148 0  95.3240740740741 0.123626373626373  96.6388888888889 0.37087912087912  C 97.9537037037037 0.618131868131866  99.1144386574074 0.916895604395601  100.12109375 1.26717032967033  C 101.127748842593 1.61744505494505  102.185763888889 2.16346153846154  103.295138888889 2.90521978021978  C 104.404513888889 3.64697802197802  105.318721064815 4.28571428571428  106.037760416667 4.82142857142857  C 106.756799768519 5.35714285714285  107.640190972222 6.17101648351648  108.687934027778 7.26304945054945  C 109.735677083333 8.35508241758241  110.536892361111 9.22046703296702  111.091579861111 9.8592032967033  C 111.646267361111 10.4979395604396  112.488570601852 11.4869505494505  113.618489583333 12.8262362637363  C 114.748408564815 14.165521978022  115.600983796296 15.1648351648352  116.176215277778 16  L 138.055555555556 16  C 139.123842592593 15.8241758241758  140.048321759259 16.2156593406593  140.828993055556 16.9986263736264  Z " fill-rule="nonzero" fill="#ff6666" stroke="none" transform="matrix(1 0 0 1 767 880 )" />
  </g>
</svg>