<?xml version="1.0" encoding="utf-8"?>
<svg version="1.1" xmlns:xlink="http://www.w3.org/1999/xlink" width="62px" height="62px" xmlns="http://www.w3.org/2000/svg">
  <g transform="matrix(1 0 0 1 -1169 -857 )">
    <path d="M 45.6119791666666 36.267578125  C 45.9348958333334 36.8999565972222  45.9887152777778 37.5525173611112  45.7734375 38.2252604166666  C 44.7777777777778 41.4813368055556  42.9210069444445 44.1050347222222  40.203125 46.0963541666666  C 37.4852430555555 48.0876736111112  34.4175347222223 49.0833333333334  31 49.0833333333334  C 27.5824652777777 49.0833333333334  24.5147569444445 48.0876736111112  21.796875 46.0963541666666  C 19.0789930555555 44.1050347222222  17.2222222222223 41.4813368055556  16.2265625 38.2252604166666  C 16.0112847222223 37.5525173611112  16.0651041666666 36.8999565972222  16.3880208333334 36.267578125  C 16.7109375 35.6351996527778  17.2222222222223 35.2113715277778  17.921875 34.99609375  C 18.5946180555555 34.7808159722222  19.2471788194445 34.8346354166666  19.8795572916666 35.1575520833334  C 20.5119357638889 35.48046875  20.9357638888889 35.9917534722222  21.1510416666666 36.69140625  C 21.8237847222223 38.8441840277778  23.068359375 40.5865885416666  24.884765625 41.9186197916666  C 26.701171875 43.2506510416666  28.7395833333334 43.9166666666666  31 43.9166666666666  C 33.2604166666666 43.9166666666666  35.298828125 43.2506510416666  37.115234375 41.9186197916666  C 38.931640625 40.5865885416666  40.1762152777778 38.8441840277778  40.8489583333334 36.69140625  C 41.0642361111111 35.9917534722222  41.4947916666666 35.48046875  42.140625 35.1575520833334  C 42.7864583333334 34.8346354166666  43.4457465277778 34.7808159722222  44.1184895833334 34.99609375  C 44.7912326388889 35.2113715277778  45.2890625 35.6351996527778  45.6119791666666 36.267578125  Z M 24.3196614583334 17.013671875  C 25.3287760416666 18.0227864583334  25.8333333333334 19.2404513888888  25.8333333333334 20.6666666666666  C 25.8333333333334 22.0928819444444  25.3287760416666 23.310546875  24.3196614583334 24.3196614583334  C 23.310546875 25.3287760416666  22.0928819444445 25.8333333333334  20.6666666666666 25.8333333333334  C 19.2404513888889 25.8333333333334  18.0227864583334 25.3287760416666  17.013671875 24.3196614583334  C 16.0045572916666 23.310546875  15.5 22.0928819444444  15.5 20.6666666666666  C 15.5 19.2404513888888  16.0045572916666 18.0227864583334  17.013671875 17.013671875  C 18.0227864583334 16.0045572916666  19.2404513888889 15.5  20.6666666666666 15.5  C 22.0928819444445 15.5  23.310546875 16.0045572916666  24.3196614583334 17.013671875  Z M 44.986328125 17.013671875  C 45.9954427083334 18.0227864583334  46.5 19.2404513888888  46.5 20.6666666666666  C 46.5 22.0928819444444  45.9954427083334 23.310546875  44.986328125 24.3196614583334  C 43.9772135416666 25.3287760416666  42.7595486111111 25.8333333333334  41.3333333333334 25.8333333333334  C 39.9071180555555 25.8333333333334  38.689453125 25.3287760416666  37.6803385416666 24.3196614583334  C 36.6712239583334 23.310546875  36.1666666666666 22.0928819444444  36.1666666666666 20.6666666666666  C 36.1666666666666 19.2404513888888  36.6712239583334 18.0227864583334  37.6803385416666 17.013671875  C 38.689453125 16.0045572916666  39.9071180555555 15.5  41.3333333333334 15.5  C 42.7595486111111 15.5  43.9772135416666 16.0045572916666  44.986328125 17.013671875  Z M 54.7747395833334 41.0305989583334  C 56.1471354166666 37.841796875  56.8333333333334 34.4982638888888  56.8333333333334 31  C 56.8333333333334 27.5017361111112  56.1471354166666 24.158203125  54.7747395833334 20.9694010416666  C 53.40234375 17.7805989583334  51.5657552083334 15.0358072916666  49.2649739583334 12.7350260416666  C 46.9641927083334 10.4342447916666  44.2194010416666 8.59765625  41.0305989583334 7.22526041666663  C 37.841796875 5.85286458333337  34.4982638888889 5.16666666666663  31 5.16666666666663  C 27.5017361111111 5.16666666666663  24.158203125 5.85286458333337  20.9694010416666 7.22526041666663  C 17.7805989583334 8.59765625  15.0358072916666 10.4342447916666  12.7350260416666 12.7350260416666  C 10.4342447916666 15.0358072916666  8.59765625 17.7805989583334  7.22526041666662 20.9694010416666  C 5.85286458333338 24.158203125  5.16666666666662 27.5017361111112  5.16666666666662 31  C 5.16666666666662 34.4982638888888  5.85286458333338 37.841796875  7.22526041666662 41.0305989583334  C 8.59765625 44.2194010416666  10.4342447916666 46.9641927083334  12.7350260416666 49.2649739583334  C 15.0358072916666 51.5657552083334  17.7805989583334 53.40234375  20.9694010416666 54.7747395833334  C 24.158203125 56.1471354166666  27.5017361111111 56.8333333333334  31 56.8333333333334  C 34.4982638888889 56.8333333333334  37.841796875 56.1471354166666  41.0305989583334 54.7747395833334  C 44.2194010416666 53.40234375  46.9641927083334 51.5657552083334  49.2649739583334 49.2649739583334  C 51.5657552083334 46.9641927083334  53.40234375 44.2194010416666  54.7747395833334 41.0305989583334  Z M 57.8424479166666 15.439453125  C 60.6141493055555 20.1890190972222  62 25.3758680555556  62 31  C 62 36.6241319444444  60.6141493055555 41.8109809027778  57.8424479166666 46.560546875  C 55.0707465277778 51.3101128472222  51.3101128472223 55.0707465277778  46.560546875 57.8424479166666  C 41.8109809027778 60.6141493055556  36.6241319444445 62  31 62  C 25.3758680555555 62  20.1890190972223 60.6141493055556  15.439453125 57.8424479166666  C 10.6898871527777 55.0707465277778  6.92925347222225 51.3101128472222  4.15755208333338 46.560546875  C 1.38585069444451 41.8109809027778  0 36.6241319444444  0 31  C 0 25.3758680555556  1.38585069444451 20.1890190972222  4.15755208333338 15.439453125  C 6.92925347222225 10.6898871527778  10.6898871527777 6.92925347222221  15.439453125 4.15755208333337  C 20.1890190972223 1.38585069444442  25.3758680555555 0  31 0  C 36.6241319444445 0  41.8109809027778 1.38585069444442  46.560546875 4.15755208333337  C 51.3101128472223 6.92925347222221  55.0707465277778 10.6898871527778  57.8424479166666 15.439453125  Z " fill-rule="nonzero" fill="#ff6666" stroke="none" transform="matrix(1 0 0 1 1169 857 )" />
  </g>
</svg>