<?xml version="1.0" encoding="utf-8"?>
<svg version="1.1" xmlns:xlink="http://www.w3.org/1999/xlink" width="117px" height="62px" xmlns="http://www.w3.org/2000/svg">
  <g transform="matrix(1 0 0 1 -492 -857 )">
    <path d="M 6.90625 36.7912087912088  C 7.44791666666667 37.6996336996337  8.39583333333333 38.1538461538462  9.75 38.1538461538462  C 11.1041666666667 38.1538461538462  12.0520833333333 37.6996336996337  12.59375 36.7912087912088  C 13.1354166666667 35.8827838827839  13.1354166666667 34.974358974359  12.59375 34.0659340659341  C 12.0520833333333 33.1575091575092  11.1041666666667 32.7032967032967  9.75 32.7032967032967  C 8.39583333333333 32.7032967032967  7.44791666666667 33.1575091575092  6.90625 34.0659340659341  C 6.36458333333333 34.974358974359  6.36458333333333 35.8827838827839  6.90625 36.7912087912088  Z M 86.099609375 38.8138736263736  C 85.9811197916667 37.6925366300366  85.46484375 36.6492673992674  84.55078125 35.6840659340659  C 84.2122395833333 35.3150183150183  83.560546875 34.6053113553114  82.595703125 33.5549450549451  C 81.630859375 32.5045787545788  80.9283854166667 31.7380952380952  80.48828125 31.2554945054945  C 80.0481770833333 30.7728937728938  79.4049479166667 30.0773809523809  78.55859375 29.168956043956  C 77.7122395833333 28.2605311355311  76.9928385416667 27.5082417582418  76.400390625 26.9120879120879  C 75.8079427083333 26.3159340659341  75.1223958333333 25.6488095238095  74.34375 24.9107142857143  C 73.5651041666667 24.172619047619  72.8033854166667 23.4771062271062  72.05859375 22.8241758241758  L 65.7109375 28.7857142857143  C 62.9010416666667 31.4542124542125  59.3717447916667 32.7600732600733  55.123046875 32.7032967032967  C 50.8743489583333 32.6465201465201  47.3958333333333 31.2554945054945  44.6875 28.5302197802198  C 42.7578125 26.5714285714286  41.8014322916667 24.3287545787546  41.818359375 21.8021978021978  C 41.8352864583333 19.275641025641  42.8255208333333 17.0471611721612  44.7890625 15.1167582417582  L 53.77734375 6.34478021978022  C 53.0325520833333 6.03250915750915  52.1692708333333 5.79830586080585  51.1875 5.64217032967033  C 50.2057291666667 5.48603479853479  49.4016927083333 5.40086996336996  48.775390625 5.38667582417583  C 48.1490885416667 5.37248168498168  47.1927083333333 5.37957875457875  45.90625 5.40796703296703  C 44.6197916666667 5.43635531135531  43.7903645833333 5.45054945054945  43.41796875 5.45054945054945  C 40.3033854166667 5.45054945054945  37.62890625 6.38736263736264  35.39453125 8.26098901098901  L 27.37109375 14.989010989011  L 20 14.989010989011  L 20 38.1538461538462  C 19.6692708333333 38.1538461538462  20.0247395833333 38.1467490842491  20.56640625 38.1325549450549  C 21.1080729166667 38.1183608058608  21.48046875 38.1183608058608  21.68359375 38.1325549450549  C 21.88671875 38.1467490842491  22.216796875 38.1751373626374  22.673828125 38.2177197802198  C 23.130859375 38.2603021978022  23.4778645833333 38.3241758241758  23.71484375 38.4093406593407  C 23.9518229166667 38.4945054945055  24.248046875 38.6151556776557  24.603515625 38.7712912087912  C 24.958984375 38.9274267399267  25.2721354166667 39.1190476190476  25.54296875 39.3461538461538  L 40.625 51.7802197802198  C 44.5182291666667 54.9313186813187  48.3606770833333 56.5068681318681  52.15234375 56.5068681318681  C 54.79296875 56.5068681318681  56.9088541666667 55.8397435897436  58.5 54.5054945054945  C 60.4296875 55.0732600732601  62.333984375 54.959706959707  64.212890625 54.1648351648352  C 66.091796875 53.3699633699634  67.3190104166667 52.1634615384615  67.89453125 50.5453296703297  C 70.3997395833333 50.7156593406593  72.5494791666667 50.0911172161172  74.34375 48.6717032967033  C 75.0208333333333 48.1607142857143  75.6302083333333 47.5148809523809  76.171875 46.7342032967033  C 76.7135416666667 45.9535256410256  76.9505208333333 45.2367216117216  76.8828125 44.5837912087912  C 77.2213541666667 44.867673992674  77.94921875 45.0096153846154  79.06640625 45.0096153846154  C 80.5221354166667 45.0096153846154  81.8255208333333 44.7115384615385  82.9765625 44.1153846153846  C 84.1276041666667 43.5192307692308  84.9654947916667 42.7669413919414  85.490234375 41.8585164835165  C 86.0149739583333 40.9500915750916  86.2180989583333 39.9352106227106  86.099609375 38.8138736263736  Z M 89.578125 32.1923076923077  C 91.3385416666667 34.0659340659341  92.3541666666667 36.0531135531135  92.625 38.1538461538462  L 97 38.1538461538462  L 97 16.3516483516484  L 92.77734375 16.3516483516484  L 84.8046875 8.68681318681318  C 82.5703125 6.52930402930403  79.7096354166667 5.45054945054945  76.22265625 5.45054945054945  L 67.7421875 5.45054945054945  C 64.7291666666667 5.45054945054945  62.2578125 6.40155677655677  60.328125 8.30357142857143  L 49.71484375 18.6510989010989  C 48.7669270833333 19.5879120879121  48.29296875 20.6524725274725  48.29296875 21.8447802197802  C 48.29296875 23.0370879120879  48.75 24.1016483516484  49.6640625 25.0384615384615  C 51.1197916666667 26.4862637362637  52.9817708333333 27.224358974359  55.25 27.2527472527473  C 57.5182291666667 27.2811355311355  59.3971354166667 26.5856227106227  60.88671875 25.1662087912088  L 70.6875 15.8832417582418  C 71.5338541666667 15.2303113553113  72.439453125 14.9251373626374  73.404296875 14.9677197802198  C 74.369140625 15.0103021978022  75.1647135416667 15.393543956044  75.791015625 16.1174450549451  C 76.4173177083333 16.8413461538462  76.5611979166667 17.643315018315  76.22265625 18.5233516483517  C 76.7643229166667 19.0627289377289  77.7122395833333 19.9569597069597  79.06640625 21.206043956044  C 80.4205729166667 22.4551282051282  81.4361979166667 23.4203296703297  82.11328125 24.1016483516484  C 83.0950520833333 25.1236263736264  84.4915364583333 26.6211080586081  86.302734375 28.5940934065934  C 88.1139322916667 30.5670787545787  89.2057291666667 31.7664835164835  89.578125 32.1923076923077  Z M 104.40625 36.7912087912088  C 104.947916666667 37.6996336996337  105.895833333333 38.1538461538462  107.25 38.1538461538462  C 108.604166666667 38.1538461538462  109.552083333333 37.6996336996337  110.09375 36.7912087912088  C 110.635416666667 35.8827838827839  110.635416666667 34.974358974359  110.09375 34.0659340659341  C 109.552083333333 33.1575091575092  108.604166666667 32.7032967032967  107.25 32.7032967032967  C 105.895833333333 32.7032967032967  104.947916666667 33.1575091575092  104.40625 34.0659340659341  C 103.864583333333 34.974358974359  103.864583333333 35.8827838827839  104.40625 36.7912087912088  Z M 116.03515625 11.7101648351648  C 116.678385416667 12.2495421245421  117 12.8882783882784  117 13.6263736263736  L 117 40.8791208791209  C 117 41.6172161172161  116.678385416667 42.2559523809524  116.03515625 42.7953296703297  C 115.391927083333 43.334706959707  114.630208333333 43.6043956043956  113.75 43  L 91.7109375 43  C 90.796875 45.4496336996337  89.4088541666667 46.9613095238095  87.546875 48.1394230769231  C 85.6848958333333 49.3175366300366  83.5690104166667 50.0485347985348  81.19921875 50.3324175824176  C 80.08203125 51.6950549450549  78.7194010416667 52.8518772893773  77.111328125 53.8028846153846  C 75.5032552083333 54.7538919413919  73.7682291666667 55.3997252747253  71.90625 55.7403846153846  C 70.484375 57.2449633699634  68.7154947916667 58.4017857142857  66.599609375 59.2108516483517  C 64.4837239583333 60.0199175824176  62.30859375 60.367673992674  60.07421875 60.2541208791209  C 58.04296875 61.2193223443224  55.91015625 61.7799908424908  53.67578125 61.9361263736264  C 51.44140625 62.0922619047619  49.283203125 61.893543956044  47.201171875 61.3399725274725  C 45.119140625 60.7864010989011  43.138671875 60.0270146520147  41.259765625 59.0618131868132  C 39.380859375 58.0966117216117  37.62890625 56.9468864468864  36.00390625 55.6126373626374  L 21.4296875 43  L 3.25 43  C 2.36979166666667 43.6043956043956  1.60807291666667 43.334706959707  0.96484375 42.7953296703297  C 0.321614583333333 42.2559523809524  0 41.6172161172161  0 40.8791208791209  L 0 12.2637362637363  C 0 11.525641025641  0.321614583333333 10.8869047619048  0.96484375 10.3475274725275  C 1.60807291666667 9.80815018315018  2.36979166666667 9.53846153846154  3.25 10  L 24.62890625 10  C 25.1028645833333 9.14102564102564  25.8984375 8.45970695970695  27.015625 7.4945054945055  C 28.1328125 6.52930402930403  28.9368489583333 5.84798534798535  29.427734375 5.45054945054945  C 29.9186197916667 5.05311355311355  30.6634114583333 4.48534798534798  31.662109375 3.74725274725275  C 32.6608072916667 3.00915750915751  33.515625 2.47687728937728  34.2265625 2.15041208791209  C 34.9375 1.82394688644688  35.80078125 1.46199633699633  36.81640625 1.06456043956044  C 37.83203125 0.667124542124533  38.8815104166667 0.39033882783882  39.96484375 0.234203296703296  C 41.0481770833333 0.0780677655677653  42.19921875 0  43.41796875 0  L 49.359375 0  C 52.7109375 0  55.7747395833333 0.794871794871785  58.55078125 2.38461538461538  C 61.3268229166667 0.794871794871785  64.390625 0  67.7421875 0  L 76.22265625 0  C 77.4075520833333 0  78.5416666666667 0.0851648351648349  79.625 0.255494505494505  C 80.7083333333333 0.425824175824174  81.6647135416667 0.631639194139192  82.494140625 0.872939560439557  C 83.3235677083333 1.11423992673992  84.1953125 1.49038461538462  85.109375 2.00137362637363  C 86.0234375 2.51236263736264  86.7766927083333 2.95238095238095  87.369140625 3.32142857142857  C 87.9615885416667 3.69047619047618  88.689453125 4.25114468864469  89.552734375 5.00343406593407  C 90.416015625 5.75572344322344  91.076171875 6.35187728937728  91.533203125 6.79189560439561  C 91.990234375 7.23191391941391  92.6842447916667 7.9132326007326  93.615234375 8.83585164835165  C 94.5462239583333 9.75847069597069  95.2486979166667 10.4468864468864  95.72265625 11  L 113.75 11  C 114.630208333333 10.9010989010989  115.391927083333 11.1707875457875  116.03515625 11.7101648351648  Z " fill-rule="nonzero" fill="#ff6666" stroke="none" transform="matrix(1 0 0 1 492 857 )" />
  </g>
</svg>