<?xml version="1.0" encoding="utf-8"?>
<svg version="1.1" xmlns:xlink="http://www.w3.org/1999/xlink" width="97px" height="68px" xmlns="http://www.w3.org/2000/svg">
  <g transform="matrix(1 0 0 1 -133 -857 )">
    <path d="M 43.7380817253121 22.6413831567206  C 46.068577374196 24.1331102435397  47.2338251986379 25.9408812046849  47.2338251986379 28.0646960401562  C 47.2338251986379 30.1632273656813  46.068577374196 31.96467744934  43.7380817253121 33.4690462911322  C 41.4075860764283 34.9734151329243  38.6091562618237 35.7255995538204  35.3427922814983 35.7255995538204  C 32.0764283011729 35.7255995538204  29.2779984865683 34.9734151329243  26.9475028376845 33.4690462911322  C 24.6170071888006 31.96467744934  23.4517593643587 30.1632273656813  23.4517593643587 28.0646960401562  C 23.4517593643587 25.9408812046849  24.6170071888006 24.1331102435397  26.9475028376845 22.6413831567206  C 29.2779984865683 21.1496560699015  32.0764283011729 20.4037925264919  35.3427922814983 20.4037925264919  C 38.6091562618237 20.4037925264919  41.4075860764283 21.1496560699015  43.7380817253121 22.6413831567206  Z M 71.4012485811578 22.6413831567206  C 73.7133938706016 24.1331102435397  74.8694665153235 25.9408812046849  74.8694665153235 28.0646960401562  C 74.8694665153235 30.1632273656813  73.7133938706016 31.96467744934  71.4012485811578 33.4690462911322  C 69.089103291714 34.9734151329243  66.2814982973893 35.7255995538204  62.9784335981839 35.7255995538204  C 59.7120696178585 35.7255995538204  56.9136398032539 34.9734151329243  54.58314415437 33.4690462911322  C 52.2526485054862 31.96467744934  51.0874006810443 30.1632273656813  51.0874006810443 28.0646960401562  C 51.0874006810443 25.9408812046849  52.2526485054862 24.1331102435397  54.58314415437 22.6413831567206  C 56.9136398032539 21.1496560699015  59.7120696178585 20.4037925264919  62.9784335981839 20.4037925264919  C 66.2814982973893 20.4037925264919  69.089103291714 21.1496560699015  71.4012485811578 22.6413831567206  Z M 83.2922814982974 36.1996653653095  C 84.6502080968596 35.8077709611452  85.9714339765418 35.3716304145752  87 34.8912437255996  L 87 9.59509202453988  C 87.2559591373439 7.39542665923034  86.668747635263 5.83416992005949  85.494324631101 4.91132180702733  C 84.3199016269391 3.98847369399516  82.2830117290957 3.52704963747909  79.3836549375709 4  L 18.16685584563 4  C 15.1206961785849 3.52704963747909  13.0562807415815 3.95686930656255  11.9736095346198 4.81650864472951  C 10.890938327658 5.67614798289644  10.3496027241771 7.2690091094999  11 9.59509202453988  L 11 35.1187953151143  C 11.9277336360197 35.7003160438743  13.5517404464624 36.2059862427961  15.2216231555051 36.6358059118795  C 16.8915058645479 37.065625580963  18.3778849791903 37.4195947202082  19.6807604994325 37.6977133296152  C 20.9836360196746 37.9758319390221  22.4700151343171 38.2097044060234  24.1398978433598 38.3993307306191  C 25.8097805524026 38.5889570552147  27.1126560726447 38.7280163599182  28.0485244040863 38.8165086447295  C 28.9843927355278 38.9050009295408  30.2689178963299 38.955567949433  31.9020998864926 38.968209704406  C 33.5352818766553 38.9808514593791  34.6087779038971 38.9871723368656  35.1225879682179 38.9871723368656  C 35.6363980325388 38.9871723368656  36.6731933409005 38.9618888269195  38.2329738933031 38.9113218070273  C 39.7927544457056 38.8607547871352  40.609345440787 38.8354712771891  40.6827468785471 38.8354712771891  C 43.1783957623912 38.810187767243  44.9216799091941 39.1515151515151  45.9125993189557 39.8594534300056  C 46.1328036322361 40.0111544896821  46.3163072266364 40.1249302844395  46.4631101021566 40.2007808142777  C 47.4173287930382 40.8328685629299  48.5367007188801 41.4775980665551  49.8212258796822 42.1349693251534  C 50.0781309118426 39.8341699200595  52.2434733257662 38.7343372374047  56.3172531214529 38.8354712771891  C 56.5007567158532 38.8354712771891  57.1705448354143 38.8544339096486  58.3266174801362 38.8923591745678  C 59.4826901248581 38.9302844394869  60.2717555807794 38.955567949433  60.6938138479001 38.968209704406  C 61.1158721150208 38.9808514593791  61.9508134695422 38.9934932143521  63.1986379114642 39.0061349693252  C 64.4464623533863 39.0187767242982  65.4190314037079 39.0061349693252  66.1163450624291 38.968209704406  C 66.8136587211502 38.9302844394869  67.8137533106319 38.8733965421082  69.116628830874 38.7975460122699  C 70.4195043511162 38.7216954824317  71.538876276958 38.6142405651608  72.4747446083995 38.4751812604573  C 73.4106129398411 38.3361219557539  74.548335225123 38.1654582636178  75.8879114642452 37.9631901840491  C 77.2274877033674 37.7609221044804  78.4569617858494 37.514407882506  79.5763337116913 37.223647518126  C 80.6957056375331 36.932887153746  81.9343548997352 36.5915597694739  83.2922814982974 36.1996653653095  Z M 96.4494892167991 32.3123257110987  C 97.2202043132804 32.969696969697  97.1468028755203 33.7661275329987  96.2292849035187 34.7016174010039  C 91.7884979190314 38.4688603829708  84.9621642073402 41.6545826361777  75.7502837684449 44.2587841606247  C 78.83314415437 51.4645844952593  78.4110858872493 57.3430005577245  74.4841089670829 61.8940323480201  C 72.0618615209989 64.7510689719279  68.7037457434733 66.6220487079383  64.4097616345062 67.5069715560513  C 60.59288687098 68.3160438743261  57.2531214528944 68.1264175497304  54.3904653802497 66.9380925822644  C 51.2342035565645 65.6486335750139  49.729474082482 63.5753857594348  49 60.718349135527  L 49 48.3547127718907  L 49.8212258796822 48.3167875069716  C 49.5276201286417 48.2662204870794  49.078036322361 48.1903699572411  48.47247446084 48.0892359174568  C 47.866912599319 47.9881018776724  47.4356791524783 47.9248931028072  48 47.8996095928611  L 48 60.718349135527  C 47.270525917518 63.6006692693809  45.7474460839955 65.67391708496  42.5544835414302 66.9380925822644  C 39.6551267499054 68.1264175497304  36.2970109723799 68.3160438743261  32.4801362088536 67.5069715560513  C 28.1861520998865 66.5967651979922  24.846386681801 64.7005019520357  22.460839954597 61.8181818181818  C 18.6072644721907 57.2671500278862  18.20355656451 51.4140174753672  21.2497162315551 44.2587841606247  C 12.0378357926599 41.6545826361777  5.2115020809686 38.4688603829708  0.770715096481271 34.7016174010039  C -0.146802875520242 33.7661275329987  -0.220204313280363 32.969696969697  0.550510783200908 32.3123257110987  C 1.32122587968218 31.6549544525005  2.422247446084 31.6675962074735  3.85357548240636 32.3502509760178  C 4.0003783579266 32.40081799591  4.21140749148695 32.4893102807213  4.4866628830874 32.6157278304518  C 4.76191827468785 32.7421453801822  4.95459704880817 32.8432794199665  5 32.9191299498048  L 5 6.59899609592861  C 5.06469920544835 4.77858337981038  5.92716609912978 3.22364751812604  7.65209988649262 1.93418851087562  C 9.37703367385547 0.644729503625205  11.4689746500189 0  13.927922814983 0  L 83.1271282633371 0  C 85.5860764283012 0  87.6780174044646 0.644729503625205  89.4029511918275 1.93418851087562  C 91.1278849791903 3.22364751812604  91.9903518728718 4.77858337981038  92 6.59899609592861  L 92 32.9191299498048  L 93.1464245175936 32.3502509760178  C 94.577752553916 31.6675962074735  95.6787741203178 31.6549544525005  96.4494892167991 32.3123257110987  Z " fill-rule="nonzero" fill="#ff6666" stroke="none" transform="matrix(1 0 0 1 133 857 )" />
  </g>
</svg>