<?xml version="1.0" encoding="utf-8"?>
<svg version="1.1" xmlns:xlink="http://www.w3.org/1999/xlink" width="12px" height="12px" viewBox="788 840  12 12" xmlns="http://www.w3.org/2000/svg">
  <path d="M 794 840  C 797.36 840  800 842.64  800 846  C 800 849.36  797.36 852  794 852  C 790.64 852  788 849.36  788 846  C 788 842.64  790.64 840  794 840  Z " fill-rule="nonzero" fill="#ffffff" stroke="none" />
  <path d="M 794 840.5  C 797.08 840.5  799.5 842.92  799.5 846  C 799.5 849.08  797.08 851.5  794 851.5  C 790.92 851.5  788.5 849.08  788.5 846  C 788.5 842.92  790.92 840.5  794 840.5  Z " stroke-width="1" stroke="#797979" fill="none" />
  <path d="M 794 849  C 792.32 849  791 847.68  791 846  C 791 844.32  792.32 843  794 843  C 795.68 843  797 844.32  797 846  C 797 847.68  795.68 849  794 849  " fill-rule="nonzero" fill="#797979" stroke="none" />
</svg>