<?xml version="1.0" encoding="utf-8"?>
<svg version="1.1" xmlns:xlink="http://www.w3.org/1999/xlink" width="12px" height="12px" viewBox="788 888  12 12" xmlns="http://www.w3.org/2000/svg">
  <path d="M 794 888  C 797.36 888  800 890.64  800 894  C 800 897.36  797.36 900  794 900  C 790.64 900  788 897.36  788 894  C 788 890.64  790.64 888  794 888  Z " fill-rule="nonzero" fill="#ffffff" stroke="none" />
  <path d="M 794 888.5  C 797.08 888.5  799.5 890.92  799.5 894  C 799.5 897.08  797.08 899.5  794 899.5  C 790.92 899.5  788.5 897.08  788.5 894  C 788.5 890.92  790.92 888.5  794 888.5  Z " stroke-width="1" stroke="#797979" fill="none" />
  <path d="M 794 897  C 792.32 897  791 895.68  791 894  C 791 892.32  792.32 891  794 891  C 795.68 891  797 892.32  797 894  C 797 895.68  795.68 897  794 897  " fill-rule="nonzero" fill="#797979" stroke="none" />
</svg>