<?xml version="1.0" encoding="utf-8"?>
<svg version="1.1" xmlns:xlink="http://www.w3.org/1999/xlink" width="18px" height="27px" xmlns="http://www.w3.org/2000/svg">
  <g transform="matrix(1 0 0 1 -911 -11 )">
    <path d="M 17.88046875 19.5205078125  C 17.96015625 20.4052734375  18 21.345703125  18 22.341796875  C 18 23.619140625  17.70703125 24.71484375  17.12109375 25.62890625  C 16.53515625 26.54296875  15.8296875 27  15.0046875 27  L 2.99531249999995 27  C 2.17031250000002 27  1.46484375 26.54296875  0.87890625 25.62890625  C 0.29296875 24.71484375  0 23.619140625  0 22.341796875  C 0 21.345703125  0.0398437500000455 20.4052734375  0.119531250000023 19.5205078125  C 0.19921875 18.6357421875  0.346874999999955 17.7451171875  0.5625 16.8486328125  C 0.778125000000045 15.9521484375  1.05234374999998 15.1845703125  1.38515625000002 14.5458984375  C 1.71796874999995 13.9072265625  2.15859375000002 13.3857421875  2.70703125 12.9814453125  C 3.25546874999998 12.5771484375  3.88593749999995 12.375  4.59843750000005 12.375  C 5.82656250000002 13.875  7.29375000000005 14.625  9 14.625  C 10.70625 14.625  12.1734375 13.875  13.4015625 12.375  C 14.1140625 12.375  14.74453125 12.5771484375  15.29296875 12.9814453125  C 15.84140625 13.3857421875  16.28203125 13.9072265625  16.61484375 14.5458984375  C 16.94765625 15.1845703125  17.221875 15.9521484375  17.4375 16.8486328125  C 17.653125 17.7451171875  17.80078125 18.6357421875  17.88046875 19.5205078125  Z M 12.81796875 1.9775390625  C 13.87265625 3.2958984375  14.4 4.88671875  14.4 6.75  C 14.4 8.61328125  13.87265625 10.2041015625  12.81796875 11.5224609375  C 11.76328125 12.8408203125  10.490625 13.5  9 13.5  C 7.50937499999998 13.5  6.23671875000002 12.8408203125  5.18203125000002 11.5224609375  C 4.12734375000002 10.2041015625  3.60000000000002 8.61328125  3.60000000000002 6.75  C 3.60000000000002 4.88671875  4.12734375000002 3.2958984375  5.18203125000002 1.9775390625  C 6.23671875000002 0.6591796875  7.50937499999998 0  9 0  C 10.490625 0  11.76328125 0.6591796875  12.81796875 1.9775390625  Z " fill-rule="nonzero" fill="#ffffff" stroke="none" transform="matrix(1 0 0 1 911 11 )" />
  </g>
</svg>